<svg width="888" height="135" viewBox="0 0 888 135" fill="none" xmlns="http://www.w3.org/2000/svg">
<path d="M496.046 120.616V123.116H498.546H532.974V129V131.5H535.474H545.394H547.894V129V123.116H556.146H558.646V120.616V112.296V109.796H556.146H547.894V101.8V99.3H545.394H535.474H532.974V101.8V109.796H516.149L537.129 84.9156L540.597 80.804H535.218H522.61H521.438L520.688 81.7052L496.624 110.633L496.046 111.328V112.232V120.616Z" stroke="#FF0000" stroke-width="5"/>
<path d="M441.749 129V131.5H444.249H494.105H496.605V129V120.744V118.244H494.105H456.669V115.56C456.669 114.343 456.986 113.782 457.28 113.488C457.595 113.173 458.243 112.812 459.673 112.812H481.305C486.188 112.812 490.326 111.488 493.353 108.519C496.417 105.555 497.821 101.541 497.821 96.808C497.821 92.075 496.417 88.0604 493.353 85.0972C490.326 82.1276 486.188 80.804 481.305 80.804H445.273H442.773V83.304V91.6239V94.1239H445.273H479.321C481.051 94.1239 481.882 94.5012 482.258 94.8223C482.559 95.0784 482.901 95.5788 482.901 96.808C482.901 98.0371 482.559 98.5375 482.258 98.7936C481.882 99.1147 481.051 99.492 479.321 99.492H458.265C453.287 99.492 449.086 100.776 446.081 103.728C443.09 106.665 441.749 110.688 441.749 115.432V129Z" stroke="#FF0000" stroke-width="5"/>
<path d="M385.699 125.392L385.709 125.4L385.718 125.408C390.919 129.789 397.985 131.82 406.593 131.82H414.913C423.559 131.82 430.633 129.792 435.797 125.4L435.797 125.4L435.807 125.392C441.07 120.867 443.525 114.281 443.525 106.088C443.525 97.9369 441.069 91.39 435.802 86.908C430.639 82.471 423.562 80.4199 414.913 80.4199H406.593C397.98 80.4199 390.91 82.4744 385.71 86.9035C380.439 91.3857 377.981 97.9342 377.981 106.088C377.981 114.281 380.437 120.867 385.699 125.392ZM413.796 93.7399L394.67 112.817C393.87 111.126 393.413 108.923 393.413 106.088C393.413 101.289 394.686 98.3622 396.688 96.6684C398.837 94.8501 402.237 93.7399 407.297 93.7399H413.796ZM414.209 118.5H407.582L426.796 99.3349C427.622 101.028 428.093 103.238 428.093 106.088C428.093 110.876 426.825 113.837 424.81 115.579C422.661 117.393 419.263 118.5 414.209 118.5Z" stroke="#FF0000" stroke-width="5"/>
<path d="M323.684 129V131.5H326.184H376.04H378.54V129V120.744V118.244H376.04H338.604V115.56C338.604 114.343 338.921 113.782 339.215 113.488C339.53 113.173 340.178 112.812 341.608 112.812H363.24C368.123 112.812 372.261 111.488 375.288 108.519C378.352 105.555 379.756 101.541 379.756 96.808C379.756 92.075 378.352 88.0604 375.288 85.0972C372.261 82.1276 368.123 80.804 363.24 80.804H327.208H324.708V83.304V91.6239V94.1239H327.208H361.256C362.986 94.1239 363.817 94.5012 364.194 94.8223C364.494 95.0784 364.836 95.5788 364.836 96.808C364.836 98.0371 364.494 98.5375 364.194 98.7936C363.817 99.1147 362.986 99.492 361.256 99.492H340.2C335.222 99.492 331.021 100.776 328.016 103.728C325.025 106.665 323.684 110.688 323.684 115.432V129Z" stroke="#FF0000" stroke-width="5"/>
<path d="M817.369 50.4991L814.366 54.5H819.369H831.913H833.18L833.929 53.4778L846.876 35.812H850.229L863.176 53.4778L863.925 54.5H865.193H877.737H882.739L879.736 50.4991L863.709 29.1499L879.738 7.7382L882.731 3.73999H877.737H865.257H863.99L863.241 4.76098L850.23 22.492H846.875L833.864 4.76098L833.115 3.73999H831.849H819.369H814.374L817.367 7.7382L833.396 29.1499L817.369 50.4991Z" stroke="#FF0000" stroke-width="5"/>
<path d="M802.801 52V54.5H805.301H815.541H818.041V52V6.23999V3.73999H815.541H805.301H802.801V6.23999V52Z" stroke="#FF0000" stroke-width="5"/>
<path d="M743.081 52V54.5H745.581H755.821H758.321V52V37.668H775.503L784.572 53.2571L785.295 54.5H786.733H798.381H802.856L800.51 50.6893L791.711 36.3984C794.193 35.4761 796.299 34.03 797.948 32.0151C800.347 29.0827 801.393 25.2101 801.393 20.704C801.393 15.4052 799.944 10.9928 796.608 7.9754C793.407 5.04067 789.058 3.73999 783.917 3.73999H745.581H743.081V6.23999V52ZM785.3 23.5971L785.28 23.615L785.261 23.6334C784.899 23.98 784.185 24.3476 782.704 24.348C782.703 24.348 782.702 24.348 782.701 24.348L758.321 24.2899V17.06H782.701C784.184 17.06 784.898 17.4277 785.261 17.7746L785.301 17.8129L785.343 17.8494C785.554 18.0339 786.025 18.7023 786.025 20.704C786.025 22.6304 785.568 23.3512 785.3 23.5971Z" stroke="#FF0000" stroke-width="5"/>
<path d="M684.674 52V54.5H687.174H697.414H699.914V52V37.668H725.51C730.651 37.668 734.999 36.3673 738.201 33.4326C741.536 30.4152 742.986 26.0028 742.986 20.704C742.986 15.4052 741.536 10.9928 738.201 7.9754C734.999 5.04067 730.651 3.73999 725.51 3.73999H687.174H684.674V6.23999V52ZM726.892 23.5971L726.873 23.615L726.854 23.6334C726.491 23.98 725.777 24.3476 724.296 24.348C724.295 24.348 724.294 24.348 724.294 24.348L699.914 24.2899V17.06H724.294C725.776 17.06 726.491 17.4277 726.854 17.7746L726.894 17.8129L726.935 17.8494C727.146 18.0339 727.618 18.7023 727.618 20.704C727.618 22.6304 727.161 23.3512 726.892 23.5971Z" stroke="#FF0000" stroke-width="5"/>
<path d="M604.296 51.9998V54.4998H606.796H634.828C643.474 54.4998 650.548 52.4717 655.712 48.0802C660.973 43.6061 663.44 37.1293 663.44 29.0878C663.44 21.0463 660.973 14.5694 655.712 10.0954C650.548 5.70384 643.474 3.67578 634.828 3.67577L634.82 3.67579L614.348 3.73978H614.344H606.796H604.296V6.23978V51.9998ZM644.733 19.9242L644.742 19.9315L644.751 19.9388C646.747 21.597 648.008 24.437 648.008 29.0878C648.008 33.6841 646.752 36.5428 644.733 38.2513C642.584 40.0696 639.184 41.1798 634.124 41.1798H619.536V16.9958H634.124C639.184 16.9958 642.584 18.106 644.733 19.9242Z" stroke="#FF0000" stroke-width="5"/>
<path d="M543.639 52V54.5H546.139H556.379H558.879V52V25.1516L586.979 53.7521L587.714 54.5H588.763H599.131H601.631V52V6.23999V3.73999H599.131H588.891H586.391V6.23999V33.0329L558.288 4.48614L557.554 3.73999H556.507H546.139H543.639V6.23999V52Z" stroke="#FF0000" stroke-width="5"/>
<path d="M482.987 50.9734L481.398 54.5H485.266H496.402H498.018L498.682 53.0265L502.37 44.836H525.186L528.875 53.0265L529.538 54.5H531.154H542.29H546.158L544.57 50.9734L523.962 5.21341L523.298 3.73999H521.682H505.874H504.258L503.595 5.21342L482.987 50.9734ZM519.224 31.516H508.332L513.778 19.4091L519.224 31.516Z" stroke="#FF0000" stroke-width="5"/>
<path d="M426.886 52V54.5H429.386H439.626H442.126V52V37.668H459.308L468.377 53.2571L469.1 54.5H470.538H482.186H486.661L484.315 50.6893L475.517 36.3984C477.999 35.4761 480.105 34.03 481.753 32.0151C484.152 29.0827 485.198 25.2101 485.198 20.704C485.198 15.4052 483.749 10.9928 480.413 7.9754C477.212 5.04067 472.863 3.73999 467.722 3.73999H429.386H426.886V6.23999V52ZM469.105 23.5971L469.085 23.615L469.066 23.6334C468.704 23.98 467.99 24.3476 466.509 24.348C466.508 24.348 466.507 24.348 466.506 24.348L442.126 24.2899V17.06H466.506C467.989 17.06 468.704 17.4277 469.066 17.7746L469.106 17.8129L469.148 17.8494C469.359 18.0339 469.83 18.7023 469.83 20.704C469.83 22.6304 469.373 23.3512 469.105 23.5971Z" stroke="#FF0000" stroke-width="5"/>
<path d="M373.657 48.361L373.647 48.3523C368.619 43.817 366.294 37.2435 366.294 29.0879C366.294 20.9574 368.673 14.4164 373.802 9.92759L373.657 48.361ZM373.657 48.361L373.666 48.3695M373.657 48.361L373.666 48.3695M373.666 48.3695C378.651 52.7736 385.413 54.8199 393.626 54.8199H421.722H424.222V52.3199V26.1439V23.6439H421.722H393.05H390.55V26.1439V41.1603C387.836 40.6885 385.885 39.6964 384.521 38.3361C382.818 36.5959 381.726 33.6853 381.726 29.0879C381.726 24.2613 382.951 21.3222 384.845 19.6366C386.882 17.8633 390.305 16.7399 395.61 16.7399H419.226H421.726V14.2399V5.91992V3.41992M373.666 48.3695L421.726 3.41992M421.726 3.41992H419.226M421.726 3.41992H419.226M419.226 3.41992H394.906C386.065 3.41992 378.9 5.46149 373.803 9.92648L419.226 3.41992ZM408.982 36.9639V41.4999H405.15V36.9639H408.982Z" stroke="#FF0000" stroke-width="5"/>
<path d="M287.107 50.9734L285.519 54.5H289.386H300.522H302.138L302.802 53.0265L306.49 44.836H329.306L332.995 53.0265L333.658 54.5H335.274H346.41H350.278L348.69 50.9734L328.082 5.21342L327.418 3.73999H325.802H309.994H308.378L307.715 5.21342L287.107 50.9734ZM323.344 31.516H312.452L317.898 19.4092L323.344 31.516Z" stroke="#FF0000" stroke-width="5"/>
<path d="M232.694 51.9998V54.4998H235.194H263.226C271.871 54.4998 278.946 52.4717 284.109 48.0802C289.37 43.6061 291.838 37.1292 291.838 29.0878C291.838 21.0463 289.37 14.5694 284.109 10.0954C278.946 5.70384 271.871 3.67578 263.226 3.67577L263.218 3.67579L242.746 3.73978H242.742H235.194H232.694V6.23978V51.9998ZM273.131 19.9242L273.139 19.9315L273.148 19.9388C275.144 21.597 276.406 24.437 276.406 29.0878C276.406 33.6841 275.15 36.5428 273.131 38.2513C270.982 40.0696 267.582 41.1798 262.522 41.1798H247.934V16.9958H262.522C267.582 16.9958 270.982 18.106 273.131 19.9242Z" stroke="#FF0000" stroke-width="5"/>
<path d="M172.042 50.9734L170.454 54.5H174.321H185.457H187.073L187.737 53.0265L191.425 44.836H214.241L217.93 53.0265L218.593 54.5H220.209H231.345H235.213L233.625 50.9734L213.017 5.21342L212.353 3.73999H210.737H194.929H193.313L192.65 5.21342L172.042 50.9734ZM208.279 31.516H197.387L202.833 19.4092L208.279 31.516Z" stroke="#FF0000" stroke-width="5"/>
<path d="M115.004 52V54.5H117.504H127.744H130.244V52V25.1516L158.344 53.7521L159.079 54.5H160.128H170.496H172.996V52V6.23999V3.73999H170.496H160.256H157.756V6.23999V33.0329L129.653 4.48614L128.919 3.73999H127.872H117.504H115.004V6.23999V52Z" stroke="#FF0000" stroke-width="5"/>
<path d="M54.3516 50.9734L52.7634 54.5H56.6311H67.7671H69.3831L70.0466 53.0265L73.7351 44.836H96.5511L100.24 53.0265L100.903 54.5H102.519H113.655H117.523L115.935 50.9734L95.3266 5.21342L94.6631 3.73999H93.0471H77.2391H75.6232L74.9596 5.21342L54.3516 50.9734ZM90.5892 31.516H79.697L85.1431 19.4092L90.5892 31.516Z" stroke="#FF0000" stroke-width="5"/>
<path d="M10.6386 48.3762L10.6386 48.3762L10.6488 48.3851C15.7434 52.8004 22.8811 54.8199 31.6782 54.8199H55.3582H57.8582V52.3199V43.9999V41.4999H55.3582H32.3822C27.1271 41.4999 23.7222 40.3793 21.6827 38.6039C19.7363 36.8684 18.4982 33.8984 18.4982 29.0879C18.4982 24.2663 19.7415 21.3306 21.6743 19.6432C23.7128 17.8635 27.1199 16.7399 32.3822 16.7399H54.7182H57.2182V14.2399V6.04788V3.56173L54.7321 3.54791L31.6921 3.41992L31.6908 3.41991C22.8857 3.37544 15.738 5.39549 10.6386 9.86355C5.4723 14.3902 3.06616 20.9477 3.06616 29.0879C3.06616 37.2656 5.46932 43.8469 10.6386 48.3762Z" stroke="#FF0000" stroke-width="5"/>
</svg>
