<svg width="894" height="139" viewBox="0 0 894 139" fill="none" xmlns="http://www.w3.org/2000/svg">
<path d="M495.605 128.616V129.116H496.105H530.974V137V137.5H531.474H553.394H553.894V137V129.116H564.146H564.646V128.616V108.296V107.796H564.146H553.894V97.8002V97.3002H553.394H535.605L550.509 79.6265L551.202 78.8042H550.126H521.797H521.562L521.412 78.9844L494.162 111.743L494.046 111.882V112.063V122.744V123.244H494.546H495.605V128.616ZM537.474 114.796H537.974V114.296V104.3H546.894V114.296V114.796H547.394H557.646V122.116H547.394H546.894V122.616V130.5H537.974V122.616V122.116H537.474H501.046V114.413L524.845 85.8042H536.142L512.388 113.974L511.694 114.796H512.77H537.474ZM530.974 107.796H526.754L530.974 102.792V107.796Z" fill="#FF1717" stroke="#FF0000"/>
<path d="M439.81 120.235L439.749 120.347V120.475V137V137.5H440.249H502.105H502.605V137V122.616V122.116H502.105H501.046V116.744V116.244H500.546H494.298C495.677 115.483 496.966 114.537 498.143 113.386C502.151 109.504 503.821 104.357 503.821 98.8082C503.821 93.2597 502.151 88.1124 498.143 84.2306C494.163 80.334 488.901 78.8042 483.305 78.8042H441.273H440.773V79.3042V97.9388V98.0356L440.809 98.1255C441.023 98.657 441.217 99.2055 441.391 99.7713L441.499 100.124H441.869H448.953C447.635 100.861 446.402 101.771 445.278 102.875C444.205 103.928 443.306 105.078 442.566 106.307L442.488 106.435L442.494 106.586C442.515 107.078 442.525 107.579 442.525 108.088C442.525 111.55 442.055 114.607 441.126 117.267L441.597 117.432L441.126 117.267C440.759 118.318 440.32 119.307 439.81 120.235ZM493.258 89.2449L493.261 89.2479C495.617 91.5223 496.821 94.6868 496.821 98.8082C496.821 102.93 495.617 106.094 493.261 108.368L493.258 108.372C490.945 110.644 487.652 111.812 483.305 111.812H461.673C459.757 111.812 458.223 112.303 457.159 113.367C456.317 114.208 455.845 115.333 455.71 116.695C455.682 116.973 455.669 117.262 455.669 117.56V122.744V123.244H456.169H495.605V130.5H446.749V117.432C446.749 113.261 447.914 110.098 450.183 107.869C452.449 105.643 455.782 104.492 460.265 104.492H481.321C483.407 104.492 485.064 104.049 486.205 103.077C487.361 102.091 487.901 100.636 487.901 98.8082C487.901 96.9804 487.361 95.5253 486.205 94.5397C485.064 93.5671 483.407 93.1242 481.321 93.1242H447.773V85.8042H483.305C487.652 85.8042 490.945 86.9726 493.258 89.2449Z" fill="#FF1717" stroke="#FF0000"/>
<path d="M376.095 107.39L375.984 107.526L375.983 107.7C375.982 107.829 375.981 107.959 375.981 108.088C375.981 117.1 378.713 124.94 385.091 130.425L385.092 130.425L385.114 130.445L385.118 130.447L385.141 130.467L385.141 130.467C391.289 135.647 399.387 137.82 408.593 137.82H416.913C426.147 137.82 434.267 135.653 440.388 130.448L440.388 130.447L440.401 130.437L440.402 130.436L440.415 130.425L440.415 130.425C443.159 128.066 445.232 125.266 446.702 122.119L446.749 122.018V121.907V117.432C446.749 113.76 447.653 110.87 449.412 108.715L449.523 108.578L449.524 108.402C449.525 108.298 449.525 108.193 449.525 108.088C449.525 99.1159 446.791 91.3105 440.403 85.8694C434.283 80.6131 426.157 78.4202 416.913 78.4202H408.593C399.374 78.4202 391.266 80.6215 385.118 85.8569C382.124 88.403 379.927 91.473 378.439 94.9449L378.377 95.0901L378.409 95.2447C378.639 96.3406 378.756 97.5279 378.756 98.8082C378.756 102.373 377.855 105.219 376.095 107.39ZM389.653 91.189L389.653 91.1888C394.143 87.3644 400.434 85.4202 408.593 85.4202H416.913C425.116 85.4202 431.406 87.3649 435.851 91.1873L435.853 91.189C440.278 94.9518 442.525 100.554 442.525 108.088C442.525 115.665 440.278 121.31 435.853 125.116C431.407 128.896 425.116 130.82 416.913 130.82H408.593C400.435 130.82 394.143 128.897 389.653 125.116C385.229 121.31 382.981 115.665 382.981 108.088C382.981 100.554 385.229 94.9518 389.653 91.189ZM421.746 94.0422L422.413 93.3771L421.489 93.1974C419.915 92.8914 418.154 92.7402 416.209 92.7402H409.297C403.858 92.7402 399.648 93.9261 396.75 96.3785C393.823 98.8557 392.413 102.802 392.413 108.088C392.413 109.961 392.593 111.668 392.958 113.206C393.516 115.555 394.505 117.51 395.939 119.053L396.292 119.432L396.658 119.066L421.746 94.0422ZM403.632 122.198L402.961 122.867L403.892 123.043C405.507 123.349 407.31 123.5 409.297 123.5H416.209C421.648 123.5 425.858 122.314 428.756 119.862L428.76 119.859C431.684 117.34 433.093 113.376 433.093 108.088C433.093 106.197 432.906 104.474 432.527 102.924C431.956 100.593 430.952 98.6524 429.5 97.1203L429.147 96.7478L428.784 97.1102L403.632 122.198ZM401.272 101.722C402.09 101.029 403.503 100.318 405.895 99.966L399.485 106.36C399.739 103.484 400.62 102.274 401.272 101.722ZM426.028 109.746C425.784 112.653 424.905 113.93 424.211 114.538C423.372 115.239 421.921 115.955 419.462 116.296L426.028 109.746Z" fill="#FF1717" stroke="#FF0000"/>
<path d="M380.077 113.386C381.212 112.288 382.16 111.086 382.937 109.8L383.015 109.672L383.009 109.522C382.99 109.052 382.981 108.574 382.981 108.088C382.981 104.649 383.45 101.613 384.378 98.974C384.71 98.0294 385.101 97.1353 385.55 96.2912L385.623 96.1551L385.606 96.0018C385.116 91.5348 383.399 87.4467 380.078 84.2306C376.098 80.334 370.836 78.8042 365.24 78.8042H323.208H322.708V79.3042V99.6242V100.124H323.208H330.888C329.57 100.861 328.337 101.771 327.213 102.875C323.261 106.756 321.684 111.925 321.684 117.432V137V137.5H322.184H384.04H384.54V137V117.798V117.708L384.509 117.624C384.384 117.288 384.267 116.945 384.158 116.595L384.048 116.244H383.681H376.234C377.612 115.483 378.901 114.538 380.077 113.386ZM380.077 113.386C380.078 113.386 380.078 113.385 380.079 113.385L379.729 113.028L380.077 113.387C380.077 113.387 380.077 113.386 380.077 113.386ZM377.54 123.244V130.5H328.684V117.432C328.684 113.261 329.849 110.098 332.118 107.869C334.384 105.643 337.717 104.492 342.2 104.492H363.256C365.342 104.492 366.999 104.049 368.14 103.077C369.296 102.091 369.836 100.636 369.836 98.8082C369.836 96.9804 369.296 95.5253 368.14 94.5397C366.999 93.5671 365.342 93.1242 363.256 93.1242H329.708V85.8042H365.24C369.587 85.8042 372.88 86.9726 375.193 89.2449L375.196 89.2479C377.552 91.5223 378.756 94.6868 378.756 98.8082C378.756 102.93 377.552 106.094 375.196 108.368L375.193 108.372C372.88 110.644 369.587 111.812 365.24 111.812H343.608C341.692 111.812 340.158 112.303 339.094 113.367C338.252 114.208 337.78 115.333 337.645 116.695C337.617 116.973 337.604 117.262 337.604 117.56V122.744V123.244H338.104H377.54Z" fill="#FF1717" stroke="#FF0000"/>
<path d="M817.141 48.8047L817.041 48.9381V49.1049V53.5002H813.866H813.616L813.466 53.7001L808.962 59.7001L808.361 60.5002H809.362H836.954H837.208L837.357 60.2958L850.552 42.2912L863.748 60.2958L863.897 60.5002H864.151H891.743H892.744L892.143 59.7001L870.708 31.1468L892.123 2.53988L892.722 1.74023H891.723H864.217H863.964L863.814 1.94443L850.552 20.0172L837.291 1.94443L837.141 1.74023H836.888H809.382H808.383L808.982 2.53988L813.473 8.53988L813.623 8.74023H813.874H817.041V13.1392V13.3056L817.141 13.4389L830.397 31.1468L817.141 48.8047ZM838.92 31.4524L839.145 31.1527L838.921 30.8526L822.367 8.74023H833.595L847.205 27.288L847.355 27.4922H847.609H853.497H853.75L853.9 27.288L867.51 8.74023H878.738L862.184 30.8526L861.96 31.1527L862.185 31.4524L878.736 53.5002H867.446L853.9 35.0167L853.75 34.8122H853.497H847.609H847.355L847.205 35.0167L833.659 53.5002H822.369L838.92 31.4524Z" fill="#FF1717" stroke="#FF0000"/>
<path d="M800.801 60.0002V60.5002H801.301H823.541H824.041V60.0002V54.0002V53.5002H823.541H822.369L823.941 51.4065L824.041 51.2732V51.1064V11.1422V10.9758L823.942 10.8426L822.368 8.74023H823.541H824.041V8.24023V2.24023V1.74023H823.541H801.301H800.801V2.24023V60.0002ZM807.801 53.5002V8.74023H817.041V53.5002H807.801Z" fill="#FF1717" stroke="#FF0000"/>
<path d="M741.081 60.0002V60.5002H741.581H763.821H764.321V60.0002V43.6682H775.203L784.85 60.2517L784.995 60.5002H785.282H811.121H812.016L811.547 59.7381L807.853 53.7381L807.801 53.654L807.727 53.5334L807.706 53.5002L799.361 39.9461C800.717 39.0089 801.953 37.8809 803.044 36.5483C806.21 32.6785 807.393 27.7978 807.393 22.7042C807.393 16.711 805.742 11.0436 801.305 7.02168C797.146 3.21191 791.709 1.74023 785.917 1.74023H741.581H741.081V2.24023V16.5836V16.667L741.108 16.7458C741.689 18.4406 741.986 20.424 741.986 22.7042C741.986 24.9845 741.689 26.9679 741.108 28.6627L741.081 28.7415V28.8249V60.0002ZM757.821 36.6682H757.321V37.1682V53.5002H748.081V8.74023H785.917C790.571 8.74023 794.104 9.91329 796.587 12.1926L796.59 12.1953C799.096 14.459 800.393 17.928 800.393 22.7042C800.393 26.7694 799.45 29.8861 797.626 32.1156L798.013 32.4322L797.626 32.1156C796.944 32.9499 796.154 33.6682 795.257 34.2715C793.741 35.2912 791.905 35.9896 789.738 36.3552L789.006 36.4786L789.395 37.1104L799.486 53.5002H789.021L779.373 36.9168L779.229 36.6682H778.941H757.821ZM757.821 16.0602H757.321V16.5602V28.7842V29.283L757.82 29.2842L784.7 29.3482H784.701C786.655 29.3482 788.226 28.8597 789.331 27.8052C790.503 26.7277 791.025 24.9788 791.025 22.7042C791.025 20.3964 790.507 18.6385 789.327 17.5993C788.222 16.5475 786.653 16.0602 784.701 16.0602H757.821Z" fill="#FF1717" stroke="#FF0000"/>
<path d="M682.674 60.0002V60.5002H683.174H705.414H705.914V60.0002V43.6682H727.51C733.302 43.6682 738.738 42.1966 742.898 38.3868C745.5 36.0276 747.147 33.0976 748.062 29.8655L748.081 29.7988V29.7294V15.6791V15.6097L748.062 15.5429C747.147 12.3109 745.5 9.38086 742.898 7.02168C738.738 3.21191 733.301 1.74023 727.51 1.74023H683.174H682.674V2.24023V60.0002ZM699.414 36.6682H698.914V37.1682V53.5002H689.674V8.74023H727.51C732.164 8.74023 735.697 9.91329 738.179 12.1926L738.182 12.1953C740.689 14.459 741.986 17.928 741.986 22.7042C741.986 27.4805 740.689 30.9495 738.182 33.2132L738.179 33.2159C735.697 35.4952 732.164 36.6682 727.51 36.6682H699.414ZM699.414 16.0602H698.914V16.5602V28.7842V29.283L699.412 29.2842L726.292 29.3482H726.294C728.248 29.3482 729.819 28.8597 730.923 27.8052C732.096 26.7277 732.618 24.9788 732.618 22.7042C732.618 20.3964 732.1 18.6385 730.919 17.5993C729.815 16.5475 728.245 16.0602 726.294 16.0602H699.414Z" fill="#FF1717" stroke="#FF0000"/>
<path d="M602.296 60V60.5H602.796H636.828C646.062 60.5 654.182 58.3333 660.303 53.1275C666.677 47.7068 669.44 39.9803 669.44 31.088C669.44 22.1958 666.677 14.4692 660.303 9.04856C654.182 3.84272 646.062 1.67603 636.828 1.67603L636.819 1.67602L636.817 1.67603L616.348 1.74002H616.347H602.796H602.296V2.24002V60ZM616.348 8.74003L616.35 8.74002L636.828 8.67603C636.828 8.67603 636.829 8.67603 636.829 8.67603C645.032 8.67615 651.323 10.6001 655.768 14.3809C660.194 18.1453 662.44 23.6851 662.44 31.088C662.44 38.4909 660.194 44.0308 655.768 47.7951C651.323 51.576 645.032 53.5 636.828 53.5H609.296V8.74002L616.348 8.74003ZM619.036 15.996H618.536V16.496V45.68V46.18H619.036H636.124C641.563 46.18 645.773 44.9941 648.671 42.5417C651.595 40.0674 653.008 36.2104 653.008 31.088C653.008 25.9264 651.597 22.0661 648.669 19.6328C645.771 17.1815 641.562 15.996 636.124 15.996H619.036ZM636.124 39.18H625.536V22.996H636.124C640.678 22.996 642.999 24.0049 644.15 24.978L644.17 24.9956L644.173 24.9982L644.194 25.0155L644.195 25.0158C644.949 25.6422 646.008 27.123 646.008 31.088C646.008 34.98 644.963 36.5093 644.15 37.198C642.999 38.1712 640.678 39.18 636.124 39.18Z" fill="#FF1717" stroke="#FF0000"/>
<path d="M542.139 53.5002H541.639V54.0002V60.0002V60.5002H542.139H564.379H564.879V60.0002V36.9303L587.89 60.3507L588.037 60.5002H588.246H607.131H607.631V60.0002V2.24023V1.74023H607.131H584.891H584.391V2.24023V25.2681L561.376 1.88946L561.229 1.74023H561.02H542.139H541.639V2.24023V49.2227V49.3301L541.683 49.428L543.517 53.5002H542.139ZM558.735 20.6898L557.879 19.8179V21.0402V53.5002H548.639V8.74023H558.297L590.534 41.487L591.391 42.3569V41.1362V8.74023H600.631V53.5002H590.972L558.735 20.6898Z" fill="#FF1717" stroke="#FF0000"/>
<path d="M480.686 53.5002H480.363L480.23 53.7949L477.528 59.7949L477.21 60.5002H477.984H502.28H502.604L502.736 60.2055L506.956 50.8362H524.601L528.82 60.2055L528.953 60.5002H529.276H553.573H554.346L554.029 59.7949L551.326 53.7949L551.194 53.5002H550.87H548.639V47.9341V47.8267L548.595 47.7288L528.016 2.03492L527.884 1.74023H527.56H503.996H503.673L503.54 2.03492L481.709 50.5113L481.6 50.753L481.739 50.9788L483.291 53.5002H480.686ZM488.04 53.5002L508.197 8.74023H523.359L543.517 53.5002H533.477L529.258 44.1309L529.125 43.8362H528.802H502.754H502.431L502.298 44.1309L498.079 53.5002H488.04ZM525.09 36.5162H525.863L525.546 35.8111L516.65 16.0351L516.517 15.7402H516.194H515.362H515.039L514.906 16.0351L506.01 35.8111L505.693 36.5162H506.466H525.09Z" fill="#FF1717" stroke="#FF0000"/>
<path d="M424.886 60.0002V60.5002H425.386H447.626H448.126V60.0002V43.6682H459.008L468.655 60.2517L468.8 60.5002H469.087H494.926H495.821L495.352 59.7381L491.658 53.7381L491.512 53.5002H491.232H488.04L489.398 50.4852L489.506 50.2435L489.367 50.0177L483.167 39.9461C484.522 39.0089 485.759 37.8809 486.849 36.5483C490.015 32.6785 491.198 27.7978 491.198 22.7042C491.198 16.7097 489.546 11.0411 485.107 7.019C480.948 3.21121 475.513 1.74023 469.722 1.74023H425.386H424.886V2.24023V60.0002ZM441.626 36.6682H441.126V37.1682V53.5002H431.886V8.74023H469.722C474.376 8.74023 477.909 9.91329 480.392 12.1926L480.395 12.1953C482.901 14.459 484.198 17.928 484.198 22.7042C484.198 26.7694 483.255 29.8861 481.431 32.1156C480.749 32.9499 479.959 33.6682 479.062 34.2715C477.546 35.2912 475.711 35.9896 473.543 36.3552L472.811 36.4786L473.2 37.1104L483.291 53.5002H472.826L463.178 36.9168L463.034 36.6682H462.746H441.626ZM441.626 16.0602H441.126V16.5602V28.7842V29.283L441.625 29.2842L468.505 29.3482H468.506C470.46 29.3482 472.031 28.8597 473.136 27.8052C474.308 26.7277 474.83 24.9788 474.83 22.7042C474.83 20.3964 474.313 18.6385 473.132 17.5993C472.027 16.5475 470.458 16.0602 468.506 16.0602H441.626Z" fill="#FF1717" stroke="#FF0000"/>
<path d="M372.995 53.3469L372.991 53.3435L372.968 53.3229C366.857 47.8112 364.294 40.0041 364.294 31.0882C364.294 22.169 366.93 14.3782 373.166 8.9193L372.995 53.3469ZM372.995 53.3469L373.018 53.3673L373.349 52.9926L373.018 53.3674C378.947 58.606 386.766 60.8202 395.626 60.8202H429.722H430.222V60.3202V22.1442V21.6442H429.722H427.726M372.995 53.3469L427.726 21.6442M427.726 21.6442V1.92017V1.42017H427.226H396.906C387.502 1.42017 379.25 3.58867 373.166 8.91914L427.726 21.6442ZM384.865 19.3835L384.862 19.3861C382.067 21.8652 380.726 25.8083 380.726 31.0882C380.726 36.1065 381.915 39.9272 384.389 42.4465L384.392 42.4497C385.614 43.6712 387.111 44.6105 388.874 45.2723C390.657 45.9417 392.711 46.3264 395.026 46.4356L395.55 46.4603V45.9362V28.6442H423.222V53.8202H395.626C387.9 53.8202 381.931 51.9004 377.655 48.1232C373.439 44.3199 371.294 38.6719 371.294 31.0882C371.294 23.5496 373.48 17.9459 377.779 14.1845L377.779 14.1842C382.136 10.367 388.485 8.42017 396.906 8.42017H420.726V15.7402H397.61C391.965 15.7402 387.683 16.9229 384.865 19.3835L384.865 19.3835ZM404.15 46.0002V46.5002H404.65H413.482H413.982V46.0002V36.4642V35.9642H413.482H404.65H404.15V36.4642V46.0002ZM387.726 31.0882C387.726 28.5938 388.099 27.0121 388.55 26.0057V36.2446C388.101 35.2182 387.726 33.6073 387.726 31.0882Z" fill="#FF1717" stroke="#FF0000"/>
<path d="M281.648 59.7949L281.33 60.5002H282.104H306.401H306.724L306.857 60.2055L311.076 50.8362H328.721L332.94 60.2055L333.073 60.5002H333.396H357.693H358.466L358.149 59.7949L332.136 2.03492L332.004 1.74023H331.681H308.116H307.793L307.66 2.03492L281.648 59.7949ZM333.378 44.1309L333.245 43.8362H332.922H306.874H306.551L306.418 44.1309L302.199 53.5002H292.16L312.317 8.74023H327.479L347.637 53.5002H337.597L333.378 44.1309ZM329.21 36.5162H329.983L329.666 35.8111L320.77 16.0351L320.638 15.7402H320.314H319.482H319.159L319.026 16.0351L310.13 35.8111L309.813 36.5162H310.586H329.21Z" fill="#FF1717" stroke="#FF0000"/>
<path d="M231.194 53.5H230.694V54V60V60.5H231.194H265.226C274.46 60.5 282.58 58.3333 288.701 53.1275C295.074 47.7068 297.838 39.9803 297.838 31.088C297.838 22.1958 295.074 14.4692 288.701 9.04856C282.58 3.84272 274.46 1.67603 265.226 1.67603L265.216 1.67602L265.215 1.67603L244.746 1.74002H244.745H231.194H230.694V2.24002V49.2226V49.33L230.738 49.4279L232.572 53.5H231.194ZM244.746 8.74003L244.747 8.74002L265.226 8.67603C265.226 8.67603 265.226 8.67603 265.226 8.67603C273.43 8.67615 279.72 10.6001 284.166 14.3809C288.592 18.1453 290.838 23.6851 290.838 31.088C290.838 38.4909 288.592 44.0308 284.166 47.7951C279.72 51.576 273.429 53.5 265.226 53.5H237.694V8.74002L244.746 8.74003ZM247.434 15.996H246.934V16.496V45.68V46.18H247.434H264.522C269.961 46.18 274.17 44.9941 277.069 42.5417C279.993 40.0674 281.406 36.2104 281.406 31.088C281.406 25.9265 279.995 22.0662 277.067 19.633C274.169 17.1816 269.96 15.996 264.522 15.996H247.434ZM264.522 39.18H253.934V22.996H264.522C269.075 22.996 271.397 24.0049 272.547 24.978L272.568 24.9956L272.571 24.9984L272.592 25.0157L272.592 25.0158C273.346 25.6422 274.406 27.123 274.406 31.088C274.406 34.98 273.361 36.5093 272.547 37.198C271.397 38.1712 269.075 39.18 264.522 39.18Z" fill="#FF1717" stroke="#FF0000"/>
<path d="M169.741 53.5002H169.417L169.285 53.7949L166.583 59.7949L166.265 60.5002H167.039H191.335H191.659L191.791 60.2055L196.011 50.8362H213.656L217.875 60.2055L218.008 60.5002H218.331H242.628H243.401L243.083 59.7949L240.381 53.7949L240.249 53.5002H239.925H237.694V47.9341V47.8267L237.649 47.7288L217.071 2.03492L216.939 1.74023H216.615H193.051H192.728L192.595 2.03492L172.04 47.6777L171.996 47.7757V47.8831V53.5002H169.741ZM177.095 53.5002L197.252 8.74023H212.414L232.572 53.5002H222.532L218.313 44.1309L218.18 43.8362H217.857H191.809H191.486L191.353 44.1309L187.134 53.5002H177.095ZM214.145 36.5162H214.918L214.601 35.8111L205.705 16.0351L205.572 15.7402H205.249H204.417H204.094L203.961 16.0351L195.065 35.8111L194.748 36.5162H195.521H214.145Z" fill="#FF1717" stroke="#FF0000"/>
<path d="M113.504 53.5002H113.004V54.0002V60.0002V60.5002H113.504H135.744H136.244V60.0002V36.9303L159.255 60.3507L159.402 60.5002H159.611H178.496H178.996V60.0002V54.0002V53.5002H178.496H177.095L178.952 49.3771L178.996 49.2792V49.1718V2.24023V1.74023H178.496H156.256H155.756V2.24023V25.2681L132.741 1.88946L132.594 1.74023H132.385H113.504H113.004V2.24023V49.2228V49.3302L113.048 49.4282L114.882 53.5002H113.504ZM130.1 20.6898L129.244 19.8179V21.0402V53.5002H120.004V8.74023H129.662L161.899 41.487L162.756 42.3569V41.1362V8.74023H171.996V53.5002H162.337L130.1 20.6898Z" fill="#FF1717" stroke="#FF0000"/>
<path d="M51.9066 53.8202H51.5834L51.4507 54.1149L48.8927 59.7949L48.5751 60.5002H49.3486H73.6454H73.9686L74.1014 60.2055L78.3206 50.8362H95.9656L100.185 60.2055L100.318 60.5002H100.641H124.938H125.711L125.393 59.7949L122.691 53.7949L122.559 53.5002H122.235H120.004V47.9341V47.8267L119.96 47.7288L99.3813 2.03492L99.2486 1.74023H98.9254H75.3608H75.0376L74.9049 2.03492L55.1976 45.7949L54.88 46.5002H55.6535H56.8581V53.8202H51.9066ZM59.4046 53.5002L79.5623 8.74023H94.7239L114.882 53.5002H104.842L100.623 44.1309L100.49 43.8362H100.167H74.1191H73.7959L73.6632 44.1309L69.4439 53.5002H59.4046ZM96.4551 36.5162H97.2283L96.9111 35.8111L88.0151 16.0351L87.8824 15.7402H87.5591H86.7271H86.4038L86.2711 16.0351L77.3751 35.8111L77.0579 36.5162H77.8311H96.4551Z" fill="#FF1717" stroke="#FF0000"/>
<path d="M10.0026 53.385L10.0026 53.385L10.0148 53.3957L10.0168 53.3974L10.0291 53.408L10.0291 53.4081C16.1072 58.6757 24.3229 60.8201 33.6782 60.8201H63.3582H63.8582V60.3201V54.0001V53.5001H63.3582H59.4047L63.8141 43.7091L63.8582 43.6112V43.5038V40.0001V39.5001H63.3582H34.3822C29.612 39.5001 27.3388 38.472 26.3276 37.6032C25.5561 36.9049 24.4982 35.2456 24.4982 31.0881C24.4982 26.8832 25.5789 25.2905 26.3049 24.6567C27.3046 23.7839 29.5757 22.7401 34.3822 22.7401H62.7182H63.2182V22.2401V2.08136V1.58413L62.7209 1.58136L33.7112 1.4202L33.711 1.4202C24.3348 1.37285 16.0932 3.51869 10.0026 8.85526C3.73775 14.3444 1.06616 22.1441 1.06616 31.0881C1.06616 40.0615 3.73 47.889 10.0026 53.385ZM34.3822 46.5001H56.8582V53.8201H33.6782C25.3007 53.8201 18.9718 51.8947 14.6147 48.1192C10.2732 44.3147 8.06616 38.668 8.06616 31.0881C8.06616 23.5513 10.2729 17.9252 14.6157 14.1202C18.9718 10.3034 25.2991 8.3778 33.6756 8.42011L56.2182 8.54535V15.7401H34.3822C28.7786 15.7401 24.5192 16.9234 21.7013 19.3835C18.8623 21.862 17.4982 25.806 17.4982 31.0881C17.4982 36.371 18.8626 40.3335 21.698 42.8538L21.7013 42.8568C24.5192 45.3168 28.7786 46.5001 34.3822 46.5001Z" fill="#FF1717" stroke="#FF0000"/>
</svg>
