<svg width="650" height="125" viewBox="0 0 875 125" fill="none" xmlns="http://www.w3.org/2000/svg">
<mask id="path-1-outside-1_169_11" maskUnits="userSpaceOnUse" x="-6" y="-6" width="891" height="137" fill="black">
<rect fill="white" x="-6" y="-6" width="891" height="137"/>
<path d="M26.6782 47.32C18.2302 47.32 11.7662 45.3787 7.28624 41.496C2.80624 37.5707 0.56624 31.768 0.56624 24.088C0.56624 16.4507 2.80624 10.6693 7.28624 6.744C11.7662 2.81867 18.2302 0.877332 26.6782 0.919998L49.7182 1.048V9.24H27.3822C21.8356 9.24 17.7182 10.4133 15.0302 12.76C12.3422 15.1067 10.9982 18.8827 10.9982 24.088C10.9982 29.2933 12.3422 33.0907 15.0302 35.48C17.7182 37.8267 21.8356 39 27.3822 39H50.3582V47.32H26.6782ZM51.6312 47L72.2392 1.24H88.0472L108.655 47H97.5192L93.1672 37.336H67.1192L62.7672 47H51.6312ZM70.8312 29.016H89.4552L80.5592 9.24H79.7272L70.8312 29.016ZM112.504 47V1.24H122.872L155.256 34.136V1.24H165.496V47H155.128L122.744 14.04V47H112.504ZM169.321 47L189.929 1.24H205.737L226.345 47H215.209L210.857 37.336H184.809L180.457 47H169.321ZM188.521 29.016H207.145L198.249 9.24H197.417L188.521 29.016ZM230.194 47V1.24H237.746L258.226 1.176C266.503 1.176 272.924 3.11733 277.49 7C282.055 10.8827 284.338 16.5787 284.338 24.088C284.338 31.5973 282.055 37.2933 277.49 41.176C272.924 45.0587 266.503 47 258.226 47H230.194ZM257.522 9.496H240.434V38.68H257.522C262.898 38.68 266.972 37.5067 269.746 35.16C272.519 32.8133 273.906 29.1227 273.906 24.088C273.906 19.0107 272.519 15.32 269.746 13.016C266.972 10.6693 262.898 9.496 257.522 9.496ZM284.386 47L304.994 1.24H320.802L341.41 47H330.274L325.922 37.336H299.874L295.522 47H284.386ZM303.586 29.016H322.21L313.314 9.24H312.482L303.586 29.016ZM388.626 47.32C380.818 47.32 374.716 45.3787 370.322 41.496C365.97 37.5707 363.794 31.768 363.794 24.088C363.794 16.4507 366.012 10.6907 370.45 6.808C374.93 2.88266 381.415 0.919998 389.906 0.919998H414.226V9.24H390.61C385.02 9.24 380.882 10.4133 378.194 12.76C375.548 15.1067 374.226 18.8827 374.226 24.088C374.226 29.0373 375.399 32.7067 377.746 35.096C380.092 37.4427 383.527 38.7227 388.05 38.936V21.144H416.722V47.32H388.626ZM397.65 39H406.482V29.464H397.65V39ZM424.386 47V1.24H462.722C467.458 1.24 471.128 2.43466 473.73 4.824C476.376 7.21333 477.698 10.84 477.698 15.704C477.698 19.8427 476.738 23.0853 474.818 25.432C472.898 27.7787 470.168 29.2507 466.626 29.848L477.186 47H465.538L455.746 30.168H434.626V47H424.386ZM461.506 9.56H434.626V21.784L461.506 21.848C463.384 21.848 464.813 21.3787 465.794 20.44C466.818 19.5013 467.33 17.9227 467.33 15.704C467.33 13.4427 466.818 11.864 465.794 10.968C464.813 10.0293 463.384 9.56 461.506 9.56ZM480.266 47L500.874 1.24H516.682L537.29 47H526.154L521.802 37.336H495.754L491.402 47H480.266ZM499.466 29.016H518.09L509.194 9.24H508.362L499.466 29.016ZM541.139 47V1.24H551.507L583.891 34.136V1.24H594.131V47H583.763L551.379 14.04V47H541.139ZM601.796 47V1.24H609.348L629.828 1.176C638.106 1.176 644.527 3.11733 649.092 7C653.658 10.8827 655.94 16.5787 655.94 24.088C655.94 31.5973 653.658 37.2933 649.092 41.176C644.527 45.0587 638.106 47 629.828 47H601.796ZM629.124 9.496H612.036V38.68H629.124C634.5 38.68 638.575 37.5067 641.348 35.16C644.122 32.8133 645.508 29.1227 645.508 24.088C645.508 19.0107 644.122 15.32 641.348 13.016C638.575 10.6693 634.5 9.496 629.124 9.496ZM682.174 47V1.24H720.51C725.246 1.24 728.915 2.43466 731.518 4.824C734.163 7.21333 735.486 10.84 735.486 15.704C735.486 20.568 734.163 24.1947 731.518 26.584C728.915 28.9733 725.246 30.168 720.51 30.168H692.414V47H682.174ZM719.294 9.56H692.414V21.784L719.294 21.848C721.171 21.848 722.6 21.3787 723.582 20.44C724.606 19.5013 725.118 17.9227 725.118 15.704C725.118 13.4427 724.606 11.864 723.582 10.968C722.6 10.0293 721.171 9.56 719.294 9.56ZM740.581 47V1.24H778.917C783.653 1.24 787.323 2.43466 789.925 4.824C792.571 7.21333 793.893 10.84 793.893 15.704C793.893 19.8427 792.933 23.0853 791.013 25.432C789.093 27.7787 786.363 29.2507 782.821 29.848L793.381 47H781.733L771.941 30.168H750.821V47H740.581ZM777.701 9.56H750.821V21.784L777.701 21.848C779.579 21.848 781.008 21.3787 781.989 20.44C783.013 19.5013 783.525 17.9227 783.525 15.704C783.525 13.4427 783.013 11.864 781.989 10.968C781.008 10.0293 779.579 9.56 777.701 9.56ZM800.301 47V1.24H810.541V47H800.301ZM814.369 47L831.521 24.152L814.369 1.24H826.849L840.609 19.992H846.497L860.257 1.24H872.737L855.585 24.152L872.737 47H860.193L846.497 28.312H840.609L826.913 47H814.369ZM321.184 124V110.432C321.184 106.165 322.378 102.859 324.768 100.512C327.157 98.1653 330.634 96.992 335.2 96.992H356.256C360.309 96.992 362.336 95.264 362.336 91.808C362.336 88.352 360.309 86.624 356.256 86.624H322.208V78.304H358.24C362.677 78.304 366.112 79.4987 368.544 81.888C371.018 84.2773 372.256 87.584 372.256 91.808C372.256 96.032 371.018 99.3387 368.544 101.728C366.112 104.117 362.677 105.312 358.24 105.312H336.608C334.773 105.312 333.386 105.781 332.448 106.72C331.552 107.616 331.104 108.896 331.104 110.56V115.744H371.04V124H321.184ZM401.593 124.32C393.359 124.32 386.937 122.379 382.329 118.496C377.764 114.571 375.481 108.768 375.481 101.088C375.481 93.4507 377.764 87.6907 382.329 83.808C386.937 79.8827 393.359 77.92 401.593 77.92H409.913C418.191 77.92 424.612 79.8827 429.177 83.808C433.743 87.6907 436.025 93.4507 436.025 101.088C436.025 108.768 433.743 114.571 429.177 118.496C424.612 122.379 418.191 124.32 409.913 124.32H401.593ZM385.913 101.088C385.913 105.739 387.044 109.28 389.305 111.712L414.393 86.688C412.857 86.3893 411.129 86.24 409.209 86.24H402.297C396.921 86.24 392.847 87.4133 390.073 89.76C387.3 92.1067 385.913 95.8827 385.913 101.088ZM402.297 116H409.209C414.585 116 418.66 114.827 421.433 112.48C424.207 110.091 425.593 106.293 425.593 101.088C425.593 96.4373 424.441 92.896 422.137 90.464L396.985 115.552C398.564 115.851 400.335 116 402.297 116ZM439.249 124V110.432C439.249 106.165 440.443 102.859 442.833 100.512C445.222 98.1653 448.699 96.992 453.265 96.992H474.321C478.374 96.992 480.401 95.264 480.401 91.808C480.401 88.352 478.374 86.624 474.321 86.624H440.273V78.304H476.305C480.742 78.304 484.177 79.4987 486.609 81.888C489.083 84.2773 490.321 87.584 490.321 91.808C490.321 96.032 489.083 99.3387 486.609 101.728C484.177 104.117 480.742 105.312 476.305 105.312H454.673C452.838 105.312 451.451 105.781 450.513 106.72C449.617 107.616 449.169 108.896 449.169 110.56V115.744H489.105V124H439.249ZM493.546 115.616V107.232L517.61 78.304H530.218L505.77 107.296H530.474V96.8H540.394V107.296H551.146V115.616H540.394V124H530.474V115.616H493.546Z"/>
</mask>
<path d="M7.28624 41.496L3.33217 46.0088L3.34439 46.0195L3.35666 46.0301L7.28624 41.496ZM26.6782 0.919998L26.7116 -5.07991L26.7085 -5.07993L26.6782 0.919998ZM49.7182 1.048H55.7182V-4.91876L49.7516 -4.95191L49.7182 1.048ZM49.7182 9.24V15.24H55.7182V9.24H49.7182ZM15.0302 12.76L18.9762 17.2799L18.9762 17.2799L15.0302 12.76ZM15.0302 35.48L11.0441 39.9645L11.0641 39.9823L11.0843 39.9999L15.0302 35.48ZM50.3582 39H56.3582V33H50.3582V39ZM50.3582 47.32V53.32H56.3582V47.32H50.3582ZM26.6782 41.32C19.068 41.32 14.2208 39.5662 11.2158 36.9619L3.35666 46.0301C9.31164 51.1911 17.3925 53.32 26.6782 53.32V41.32ZM11.2403 36.9832C8.41466 34.5074 6.56624 30.5735 6.56624 24.088H-5.43376C-5.43376 32.9625 -2.80218 40.6339 3.33217 46.0088L11.2403 36.9832ZM6.56624 24.088C6.56624 17.6574 8.40751 13.7389 11.2403 11.2568L3.33217 2.2312C-2.79503 7.5998 -5.43376 15.2439 -5.43376 24.088H6.56624ZM11.2403 11.2568C14.2337 8.634 19.057 6.88158 26.6479 6.91992L26.7085 -5.07993C17.4034 -5.12692 9.29876 -2.99667 3.33217 2.2312L11.2403 11.2568ZM26.6449 6.91991L49.6849 7.0479L49.7516 -4.95191L26.7116 -5.07991L26.6449 6.91991ZM43.7182 1.048V9.24H55.7182V1.048H43.7182ZM49.7182 3.24H27.3822V15.24H49.7182V3.24ZM27.3822 3.24C21.153 3.24 15.3311 4.53258 11.0843 8.2401L18.9762 17.2799C20.1054 16.2941 22.5181 15.24 27.3822 15.24V3.24ZM11.0843 8.2401C6.58391 12.169 4.99824 17.9618 4.99824 24.088H16.9982C16.9982 19.8036 18.1006 18.0443 18.9762 17.2799L11.0843 8.2401ZM4.99824 24.088C4.99824 30.2242 6.58782 36.0034 11.0441 39.9645L19.0164 30.9955C18.0967 30.178 16.9982 28.3624 16.9982 24.088H4.99824ZM11.0843 39.9999C15.3311 43.7074 21.153 45 27.3822 45V33C22.5181 33 20.1054 31.9459 18.9762 30.9601L11.0843 39.9999ZM27.3822 45H50.3582V33H27.3822V45ZM44.3582 39V47.32H56.3582V39H44.3582ZM50.3582 41.32H26.6782V53.32H50.3582V41.32ZM51.6312 47L46.1604 44.5362L42.3488 53H51.6312V47ZM72.2392 1.24V-4.76H68.361L66.7684 -1.22378L72.2392 1.24ZM88.0472 1.24L93.5181 -1.22378L91.9255 -4.76H88.0472V1.24ZM108.655 47V53H117.938L114.126 44.5362L108.655 47ZM97.5192 47L92.0484 49.4637L93.6409 53H97.5192V47ZM93.1672 37.336L98.6381 34.8723L97.0456 31.336H93.1672V37.336ZM67.1192 37.336V31.336H63.2409L61.6484 34.8723L67.1192 37.336ZM62.7672 47V53H66.6456L68.2381 49.4637L62.7672 47ZM70.8312 29.016L65.3594 26.5545L61.5531 35.016H70.8312V29.016ZM89.4552 29.016V35.016H98.7334L94.9271 26.5545L89.4552 29.016ZM80.5592 9.24L86.0311 6.77855L84.4393 3.24H80.5592V9.24ZM79.7272 9.24V3.24H75.8472L74.2554 6.77855L79.7272 9.24ZM57.1021 49.4638L77.7101 3.70378L66.7684 -1.22378L46.1604 44.5362L57.1021 49.4638ZM72.2392 7.24H88.0472V-4.76H72.2392V7.24ZM82.5764 3.70378L103.184 49.4638L114.126 44.5362L93.5181 -1.22378L82.5764 3.70378ZM108.655 41H97.5192V53H108.655V41ZM102.99 44.5363L98.6381 34.8723L87.6964 39.7997L92.0484 49.4637L102.99 44.5363ZM93.1672 31.336H67.1192V43.336H93.1672V31.336ZM61.6484 34.8723L57.2964 44.5363L68.2381 49.4637L72.5901 39.7997L61.6484 34.8723ZM62.7672 41H51.6312V53H62.7672V41ZM70.8312 35.016H89.4552V23.016H70.8312V35.016ZM94.9271 26.5545L86.0311 6.77855L75.0874 11.7014L83.9834 31.4775L94.9271 26.5545ZM80.5592 3.24H79.7272V15.24H80.5592V3.24ZM74.2554 6.77855L65.3594 26.5545L76.3031 31.4775L85.1991 11.7014L74.2554 6.77855ZM112.504 47H106.504V53H112.504V47ZM112.504 1.24V-4.76H106.504V1.24H112.504ZM122.872 1.24L127.148 -2.96924L125.385 -4.76H122.872V1.24ZM155.256 34.136L150.98 38.3452L161.256 48.7835V34.136H155.256ZM155.256 1.24V-4.76H149.256V1.24H155.256ZM165.496 1.24H171.496V-4.76H165.496V1.24ZM165.496 47V53H171.496V47H165.496ZM155.128 47L150.848 51.2051L152.611 53H155.128V47ZM122.744 14.04L127.024 9.83492L116.744 -0.627798V14.04H122.744ZM122.744 47V53H128.744V47H122.744ZM118.504 47V1.24H106.504V47H118.504ZM112.504 7.24H122.872V-4.76H112.504V7.24ZM118.596 5.44923L150.98 38.3452L159.532 29.9268L127.148 -2.96924L118.596 5.44923ZM161.256 34.136V1.24H149.256V34.136H161.256ZM155.256 7.24H165.496V-4.76H155.256V7.24ZM159.496 1.24V47H171.496V1.24H159.496ZM165.496 41H155.128V53H165.496V41ZM159.408 42.7949L127.024 9.83492L118.464 18.2451L150.848 51.2051L159.408 42.7949ZM116.744 14.04V47H128.744V14.04H116.744ZM122.744 41H112.504V53H122.744V41ZM169.321 47L163.85 44.5362L160.039 53H169.321V47ZM189.929 1.24V-4.76H186.051L184.458 -1.22378L189.929 1.24ZM205.737 1.24L211.208 -1.22378L209.616 -4.76H205.737V1.24ZM226.345 47V53H235.628L231.816 44.5362L226.345 47ZM215.209 47L209.738 49.4637L211.331 53H215.209V47ZM210.857 37.336L216.328 34.8723L214.736 31.336H210.857V37.336ZM184.809 37.336V31.336H180.931L179.338 34.8723L184.809 37.336ZM180.457 47V53H184.336L185.928 49.4637L180.457 47ZM188.521 29.016L183.049 26.5545L179.243 35.016H188.521V29.016ZM207.145 29.016V35.016H216.423L212.617 26.5545L207.145 29.016ZM198.249 9.24L203.721 6.77855L202.129 3.24H198.249V9.24ZM197.417 9.24V3.24H193.537L191.945 6.77855L197.417 9.24ZM174.792 49.4638L195.4 3.70378L184.458 -1.22378L163.85 44.5362L174.792 49.4638ZM189.929 7.24H205.737V-4.76H189.929V7.24ZM200.266 3.70378L220.874 49.4638L231.816 44.5362L211.208 -1.22378L200.266 3.70378ZM226.345 41H215.209V53H226.345V41ZM220.68 44.5363L216.328 34.8723L205.386 39.7997L209.738 49.4637L220.68 44.5363ZM210.857 31.336H184.809V43.336H210.857V31.336ZM179.338 34.8723L174.986 44.5363L185.928 49.4637L190.28 39.7997L179.338 34.8723ZM180.457 41H169.321V53H180.457V41ZM188.521 35.016H207.145V23.016H188.521V35.016ZM212.617 26.5545L203.721 6.77855L192.777 11.7014L201.673 31.4775L212.617 26.5545ZM198.249 3.24H197.417V15.24H198.249V3.24ZM191.945 6.77855L183.049 26.5545L193.993 31.4775L202.889 11.7014L191.945 6.77855ZM230.194 47H224.194V53H230.194V47ZM230.194 1.24V-4.76H224.194V1.24H230.194ZM237.746 1.24V7.24H237.755L237.764 7.23997L237.746 1.24ZM258.226 1.176V-4.824H258.216L258.207 -4.82397L258.226 1.176ZM277.49 7L273.603 11.5706L273.603 11.5706L277.49 7ZM277.49 41.176L273.603 36.6054L273.603 36.6054L277.49 41.176ZM240.434 9.496V3.496H234.434V9.496H240.434ZM240.434 38.68H234.434V44.68H240.434V38.68ZM269.746 35.16L273.621 39.7403L273.621 39.7403L269.746 35.16ZM269.746 13.016L265.87 17.5963L265.891 17.6138L265.912 17.6311L269.746 13.016ZM236.194 47V1.24H224.194V47H236.194ZM230.194 7.24H237.746V-4.76H230.194V7.24ZM237.764 7.23997L258.244 7.17597L258.207 -4.82397L237.727 -4.75997L237.764 7.23997ZM258.226 7.176C265.62 7.176 270.473 8.90919 273.603 11.5706L281.377 2.42942C275.376 -2.67452 267.386 -4.824 258.226 -4.824V7.176ZM273.603 11.5706C276.499 14.0339 278.338 17.8558 278.338 24.088H290.338C290.338 15.3015 287.611 7.73147 281.377 2.42942L273.603 11.5706ZM278.338 24.088C278.338 30.3202 276.499 34.1421 273.603 36.6054L281.377 45.7466C287.611 40.4445 290.338 32.8744 290.338 24.088H278.338ZM273.603 36.6054C270.473 39.2668 265.62 41 258.226 41V53C267.386 53 275.376 50.8505 281.377 45.7466L273.603 36.6054ZM258.226 41H230.194V53H258.226V41ZM257.522 3.496H240.434V15.496H257.522V3.496ZM234.434 9.496V38.68H246.434V9.496H234.434ZM240.434 44.68H257.522V32.68H240.434V44.68ZM257.522 44.68C263.656 44.68 269.349 43.3551 273.621 39.7403L265.87 30.5797C264.595 31.6582 262.139 32.68 257.522 32.68V44.68ZM273.621 39.7403C278.205 35.862 279.906 30.1747 279.906 24.088H267.906C267.906 28.0706 266.833 29.7647 265.87 30.5797L273.621 39.7403ZM279.906 24.088C279.906 17.9869 278.219 12.2547 273.58 8.40086L265.912 17.6311C266.819 18.3853 267.906 20.0344 267.906 24.088H279.906ZM273.621 8.43568C269.349 4.82087 263.656 3.496 257.522 3.496V15.496C262.139 15.496 264.595 16.5178 265.87 17.5963L273.621 8.43568ZM284.386 47L278.915 44.5362L275.104 53H284.386V47ZM304.994 1.24V-4.76H301.116L299.523 -1.22378L304.994 1.24ZM320.802 1.24L326.273 -1.22378L324.681 -4.76H320.802V1.24ZM341.41 47V53H350.693L346.881 44.5362L341.41 47ZM330.274 47L324.803 49.4637L326.396 53H330.274V47ZM325.922 37.336L331.393 34.8723L329.801 31.336H325.922V37.336ZM299.874 37.336V31.336H295.996L294.403 34.8723L299.874 37.336ZM295.522 47V53H299.401L300.993 49.4637L295.522 47ZM303.586 29.016L298.114 26.5545L294.308 35.016H303.586V29.016ZM322.21 29.016V35.016H331.488L327.682 26.5545L322.21 29.016ZM313.314 9.24L318.786 6.77855L317.194 3.24H313.314V9.24ZM312.482 9.24V3.24H308.602L307.01 6.77855L312.482 9.24ZM289.857 49.4638L310.465 3.70378L299.523 -1.22378L278.915 44.5362L289.857 49.4638ZM304.994 7.24H320.802V-4.76H304.994V7.24ZM315.331 3.70378L335.939 49.4638L346.881 44.5362L326.273 -1.22378L315.331 3.70378ZM341.41 41H330.274V53H341.41V41ZM335.745 44.5363L331.393 34.8723L320.451 39.7997L324.803 49.4637L335.745 44.5363ZM325.922 31.336H299.874V43.336H325.922V31.336ZM294.403 34.8723L290.051 44.5363L300.993 49.4637L305.345 39.7997L294.403 34.8723ZM295.522 41H284.386V53H295.522V41ZM303.586 35.016H322.21V23.016H303.586V35.016ZM327.682 26.5545L318.786 6.77855L307.842 11.7014L316.738 31.4775L327.682 26.5545ZM313.314 3.24H312.482V15.24H313.314V3.24ZM307.01 6.77855L298.114 26.5545L309.058 31.4775L317.954 11.7014L307.01 6.77855ZM370.322 41.496L366.303 45.9514L366.326 45.9721L366.349 45.9925L370.322 41.496ZM370.45 6.808L374.401 11.3235L374.404 11.3208L370.45 6.808ZM414.226 0.919998H420.226V-5.08H414.226V0.919998ZM414.226 9.24V15.24H420.226V9.24H414.226ZM378.194 12.76L374.248 8.2401L374.23 8.25575L374.212 8.27155L378.194 12.76ZM377.746 35.096L373.465 39.3002L373.484 39.3195L373.503 39.3386L377.746 35.096ZM388.05 38.936L387.767 44.9293L394.05 45.2257V38.936H388.05ZM388.05 21.144V15.144H382.05V21.144H388.05ZM416.722 21.144H422.722V15.144H416.722V21.144ZM416.722 47.32V53.32H422.722V47.32H416.722ZM397.65 39H391.65V45H397.65V39ZM406.482 39V45H412.482V39H406.482ZM406.482 29.464H412.482V23.464H406.482V29.464ZM397.65 29.464V23.464H391.65V29.464H397.65ZM388.626 41.32C381.789 41.32 377.272 39.6307 374.294 36.9995L366.349 45.9925C372.16 51.1267 379.847 53.32 388.626 53.32V41.32ZM374.34 37.0406C371.611 34.5792 369.794 30.6266 369.794 24.088H357.794C357.794 32.9094 360.328 40.5621 366.303 45.9514L374.34 37.0406ZM369.794 24.088C369.794 17.6359 371.626 13.7513 374.401 11.3235L366.499 2.29254C360.399 7.63002 357.794 15.2654 357.794 24.088H369.794ZM374.404 11.3208C377.404 8.69248 382.258 6.92 389.906 6.92V-5.08C380.572 -5.08 372.456 -2.92715 366.496 2.2952L374.404 11.3208ZM389.906 6.92H414.226V-5.08H389.906V6.92ZM408.226 0.919998V9.24H420.226V0.919998H408.226ZM414.226 3.24H390.61V15.24H414.226V3.24ZM390.61 3.24C384.352 3.24 378.501 4.52663 374.248 8.2401L382.14 17.2799C383.262 16.3 385.689 15.24 390.61 15.24V3.24ZM374.212 8.27155C369.775 12.2074 368.226 17.9886 368.226 24.088H380.226C380.226 19.7767 381.322 18.0059 382.175 17.2484L374.212 8.27155ZM368.226 24.088C368.226 29.865 369.586 35.3508 373.465 39.3002L382.026 30.8918C381.212 30.0625 380.226 28.2097 380.226 24.088H368.226ZM373.503 39.3386C377.239 43.0745 382.302 44.6715 387.767 44.9293L388.332 32.9427C384.753 32.7738 382.946 31.8108 381.988 30.8534L373.503 39.3386ZM394.05 38.936V21.144H382.05V38.936H394.05ZM388.05 27.144H416.722V15.144H388.05V27.144ZM410.722 21.144V47.32H422.722V21.144H410.722ZM416.722 41.32H388.626V53.32H416.722V41.32ZM397.65 45H406.482V33H397.65V45ZM412.482 39V29.464H400.482V39H412.482ZM406.482 23.464H397.65V35.464H406.482V23.464ZM391.65 29.464V39H403.65V29.464H391.65ZM424.386 47H418.386V53H424.386V47ZM424.386 1.24V-4.76H418.386V1.24H424.386ZM473.73 4.824L469.673 9.24391L469.691 9.26034L469.709 9.27661L473.73 4.824ZM466.626 29.848L465.628 23.9316L456.849 25.4124L461.517 32.9936L466.626 29.848ZM477.186 47V53H487.926L482.296 43.8544L477.186 47ZM465.538 47L460.352 50.0171L462.087 53H465.538V47ZM455.746 30.168L460.932 27.1509L459.197 24.168H455.746V30.168ZM434.626 30.168V24.168H428.626V30.168H434.626ZM434.626 47V53H440.626V47H434.626ZM434.626 9.56V3.56H428.626V9.56H434.626ZM434.626 21.784H428.626V27.7697L434.612 27.784L434.626 21.784ZM461.506 21.848L461.492 27.848L461.499 27.848H461.506V21.848ZM465.794 20.44L461.74 16.0171L461.693 16.0601L461.647 16.1041L465.794 20.44ZM465.794 10.968L461.647 15.3038L461.743 15.3958L461.843 15.4835L465.794 10.968ZM430.386 47V1.24H418.386V47H430.386ZM424.386 7.24H462.722V-4.76H424.386V7.24ZM462.722 7.24C466.476 7.24 468.509 8.1753 469.673 9.24391L477.788 0.404082C473.747 -3.30597 468.44 -4.76 462.722 -4.76V7.24ZM469.709 9.27661C470.685 10.1583 471.698 11.893 471.698 15.704H483.698C483.698 9.78704 482.067 4.26841 477.752 0.37138L469.709 9.27661ZM471.698 15.704C471.698 18.9609 470.944 20.6916 470.175 21.6326L479.462 29.2314C482.532 25.479 483.698 20.7245 483.698 15.704H471.698ZM470.175 21.6326C469.338 22.6552 468.016 23.5288 465.628 23.9316L467.624 35.7644C472.319 34.9726 476.459 32.9021 479.462 29.2314L470.175 21.6326ZM461.517 32.9936L472.077 50.1456L482.296 43.8544L471.736 26.7024L461.517 32.9936ZM477.186 41H465.538V53H477.186V41ZM470.724 43.9829L460.932 27.1509L450.56 33.1851L460.352 50.0171L470.724 43.9829ZM455.746 24.168H434.626V36.168H455.746V24.168ZM428.626 30.168V47H440.626V30.168H428.626ZM434.626 41H424.386V53H434.626V41ZM461.506 3.56H434.626V15.56H461.506V3.56ZM428.626 9.56V21.784H440.626V9.56H428.626ZM434.612 27.784L461.492 27.848L461.521 15.848L434.641 15.784L434.612 27.784ZM461.506 27.848C464.33 27.848 467.475 27.1348 469.942 24.7758L461.647 16.1041C461.75 16.0052 461.855 15.9292 461.948 15.875C462.039 15.8218 462.101 15.8 462.114 15.7954C462.126 15.7915 462.089 15.8051 461.987 15.8195C461.885 15.834 461.728 15.848 461.506 15.848V27.848ZM469.849 24.8629C472.686 22.2616 473.33 18.6241 473.33 15.704H461.33C461.33 16.0314 461.311 16.275 461.288 16.4463C461.265 16.6179 461.241 16.6957 461.239 16.701C461.238 16.7043 461.264 16.6229 461.344 16.4908C461.428 16.3545 461.556 16.1854 461.74 16.0171L469.849 24.8629ZM473.33 15.704C473.33 12.8196 472.721 9.05612 469.745 6.45253L461.843 15.4835C461.622 15.2897 461.468 15.0921 461.368 14.9322C461.272 14.7775 461.24 14.6783 461.239 14.675C461.238 14.6736 461.263 14.7503 461.287 14.929C461.311 15.1069 461.33 15.3612 461.33 15.704H473.33ZM469.942 6.63215C467.475 4.27315 464.33 3.56 461.506 3.56V15.56C461.728 15.56 461.885 15.574 461.987 15.5885C462.089 15.6029 462.126 15.6165 462.114 15.6125C462.101 15.608 462.039 15.5862 461.948 15.533C461.855 15.4788 461.75 15.4028 461.647 15.3038L469.942 6.63215ZM480.266 47L474.795 44.5362L470.984 53H480.266V47ZM500.874 1.24V-4.76H496.996L495.403 -1.22378L500.874 1.24ZM516.682 1.24L522.153 -1.22378L520.561 -4.76H516.682V1.24ZM537.29 47V53H546.573L542.761 44.5362L537.29 47ZM526.154 47L520.683 49.4637L522.276 53H526.154V47ZM521.802 37.336L527.273 34.8723L525.681 31.336H521.802V37.336ZM495.754 37.336V31.336H491.876L490.283 34.8723L495.754 37.336ZM491.402 47V53H495.281L496.873 49.4637L491.402 47ZM499.466 29.016L493.994 26.5545L490.188 35.016H499.466V29.016ZM518.09 29.016V35.016H527.368L523.562 26.5545L518.09 29.016ZM509.194 9.24L514.666 6.77855L513.074 3.24H509.194V9.24ZM508.362 9.24V3.24H504.482L502.89 6.77855L508.362 9.24ZM485.737 49.4638L506.345 3.70378L495.403 -1.22378L474.795 44.5362L485.737 49.4638ZM500.874 7.24H516.682V-4.76H500.874V7.24ZM511.211 3.70378L531.819 49.4638L542.761 44.5362L522.153 -1.22378L511.211 3.70378ZM537.29 41H526.154V53H537.29V41ZM531.625 44.5363L527.273 34.8723L516.331 39.7997L520.683 49.4637L531.625 44.5363ZM521.802 31.336H495.754V43.336H521.802V31.336ZM490.283 34.8723L485.931 44.5363L496.873 49.4637L501.225 39.7997L490.283 34.8723ZM491.402 41H480.266V53H491.402V41ZM499.466 35.016H518.09V23.016H499.466V35.016ZM523.562 26.5545L514.666 6.77855L503.722 11.7014L512.618 31.4775L523.562 26.5545ZM509.194 3.24H508.362V15.24H509.194V3.24ZM502.89 6.77855L493.994 26.5545L504.938 31.4775L513.834 11.7014L502.89 6.77855ZM541.139 47H535.139V53H541.139V47ZM541.139 1.24V-4.76H535.139V1.24H541.139ZM551.507 1.24L555.783 -2.96924L554.02 -4.76H551.507V1.24ZM583.891 34.136L579.615 38.3452L589.891 48.7835V34.136H583.891ZM583.891 1.24V-4.76H577.891V1.24H583.891ZM594.131 1.24H600.131V-4.76H594.131V1.24ZM594.131 47V53H600.131V47H594.131ZM583.763 47L579.483 51.2051L581.246 53H583.763V47ZM551.379 14.04L555.659 9.83492L545.379 -0.627798V14.04H551.379ZM551.379 47V53H557.379V47H551.379ZM547.139 47V1.24H535.139V47H547.139ZM541.139 7.24H551.507V-4.76H541.139V7.24ZM547.231 5.44923L579.615 38.3452L588.167 29.9268L555.783 -2.96924L547.231 5.44923ZM589.891 34.136V1.24H577.891V34.136H589.891ZM583.891 7.24H594.131V-4.76H583.891V7.24ZM588.131 1.24V47H600.131V1.24H588.131ZM594.131 41H583.763V53H594.131V41ZM588.043 42.7949L555.659 9.83492L547.099 18.2451L579.483 51.2051L588.043 42.7949ZM545.379 14.04V47H557.379V14.04H545.379ZM551.379 41H541.139V53H551.379V41ZM601.796 47H595.796V53H601.796V47ZM601.796 1.24V-4.76H595.796V1.24H601.796ZM609.348 1.24V7.24H609.358L609.367 7.23997L609.348 1.24ZM629.828 1.176V-4.824H629.819L629.809 -4.82397L629.828 1.176ZM649.092 7L645.205 11.5706L645.205 11.5706L649.092 7ZM649.092 41.176L645.205 36.6054L645.205 36.6054L649.092 41.176ZM612.036 9.496V3.496H606.036V9.496H612.036ZM612.036 38.68H606.036V44.68H612.036V38.68ZM641.348 35.16L645.224 39.7403L645.224 39.7403L641.348 35.16ZM641.348 13.016L637.473 17.5963L637.493 17.6138L637.514 17.6311L641.348 13.016ZM607.796 47V1.24H595.796V47H607.796ZM601.796 7.24H609.348V-4.76H601.796V7.24ZM609.367 7.23997L629.847 7.17597L629.809 -4.82397L609.329 -4.75997L609.367 7.23997ZM629.828 7.176C637.222 7.176 642.076 8.90919 645.205 11.5706L652.979 2.42942C646.978 -2.67452 638.989 -4.824 629.828 -4.824V7.176ZM645.205 11.5706C648.101 14.0339 649.94 17.8558 649.94 24.088H661.94C661.94 15.3015 659.214 7.73147 652.979 2.42942L645.205 11.5706ZM649.94 24.088C649.94 30.3202 648.101 34.1421 645.205 36.6054L652.979 45.7466C659.214 40.4445 661.94 32.8744 661.94 24.088H649.94ZM645.205 36.6054C642.076 39.2668 637.222 41 629.828 41V53C638.989 53 646.978 50.8505 652.979 45.7466L645.205 36.6054ZM629.828 41H601.796V53H629.828V41ZM629.124 3.496H612.036V15.496H629.124V3.496ZM606.036 9.496V38.68H618.036V9.496H606.036ZM612.036 44.68H629.124V32.68H612.036V44.68ZM629.124 44.68C635.259 44.68 640.952 43.3551 645.224 39.7403L637.473 30.5797C636.198 31.6582 633.742 32.68 629.124 32.68V44.68ZM645.224 39.7403C649.807 35.862 651.508 30.1747 651.508 24.088H639.508C639.508 28.0706 638.436 29.7647 637.473 30.5797L645.224 39.7403ZM651.508 24.088C651.508 17.9869 649.821 12.2547 645.182 8.40086L637.514 17.6311C638.422 18.3853 639.508 20.0344 639.508 24.088H651.508ZM645.224 8.43568C640.952 4.82087 635.259 3.496 629.124 3.496V15.496C633.742 15.496 636.198 16.5178 637.473 17.5963L645.224 8.43568ZM682.174 47H676.174V53H682.174V47ZM682.174 1.24V-4.76H676.174V1.24H682.174ZM731.518 4.824L727.46 9.24391L727.478 9.26034L727.496 9.27661L731.518 4.824ZM731.518 26.584L727.496 22.1314L727.478 22.1477L727.46 22.1641L731.518 26.584ZM692.414 30.168V24.168H686.414V30.168H692.414ZM692.414 47V53H698.414V47H692.414ZM692.414 9.56V3.56H686.414V9.56H692.414ZM692.414 21.784H686.414V27.7697L692.399 27.784L692.414 21.784ZM719.294 21.848L719.279 27.848L719.287 27.848H719.294V21.848ZM723.582 20.44L719.527 16.0171L719.48 16.0601L719.434 16.1041L723.582 20.44ZM723.582 10.968L719.434 15.3038L719.531 15.3958L719.631 15.4835L723.582 10.968ZM688.174 47V1.24H676.174V47H688.174ZM682.174 7.24H720.51V-4.76H682.174V7.24ZM720.51 7.24C724.264 7.24 726.296 8.1753 727.46 9.24391L735.575 0.404082C731.534 -3.30597 726.228 -4.76 720.51 -4.76V7.24ZM727.496 9.27661C728.472 10.1583 729.486 11.893 729.486 15.704H741.486C741.486 9.78704 739.854 4.26841 735.539 0.37138L727.496 9.27661ZM729.486 15.704C729.486 19.515 728.472 21.2497 727.496 22.1314L735.539 31.0366C739.854 27.1396 741.486 21.621 741.486 15.704H729.486ZM727.46 22.1641C726.296 23.2327 724.264 24.168 720.51 24.168V36.168C726.228 36.168 731.534 34.714 735.575 31.0039L727.46 22.1641ZM720.51 24.168H692.414V36.168H720.51V24.168ZM686.414 30.168V47H698.414V30.168H686.414ZM692.414 41H682.174V53H692.414V41ZM719.294 3.56H692.414V15.56H719.294V3.56ZM686.414 9.56V21.784H698.414V9.56H686.414ZM692.399 27.784L719.279 27.848L719.308 15.848L692.428 15.784L692.399 27.784ZM719.294 27.848C722.118 27.848 725.263 27.1348 727.729 24.7758L719.434 16.1041C719.538 16.0052 719.643 15.9292 719.736 15.875C719.827 15.8218 719.888 15.8 719.902 15.7954C719.914 15.7915 719.876 15.8051 719.775 15.8195C719.672 15.834 719.515 15.848 719.294 15.848V27.848ZM727.636 24.8629C730.474 22.2616 731.118 18.6241 731.118 15.704H719.118C719.118 16.0314 719.099 16.275 719.076 16.4463C719.052 16.6179 719.028 16.6957 719.026 16.701C719.025 16.7043 719.051 16.6229 719.132 16.4908C719.215 16.3545 719.344 16.1854 719.527 16.0171L727.636 24.8629ZM731.118 15.704C731.118 12.8196 730.508 9.05612 727.533 6.45253L719.631 15.4835C719.409 15.2897 719.255 15.0921 719.156 14.9322C719.06 14.7775 719.027 14.6783 719.026 14.675C719.026 14.6736 719.051 14.7503 719.074 14.929C719.098 15.1069 719.118 15.3612 719.118 15.704H731.118ZM727.729 6.63215C725.263 4.27315 722.118 3.56 719.294 3.56V15.56C719.515 15.56 719.672 15.574 719.775 15.5885C719.876 15.6029 719.914 15.6165 719.902 15.6125C719.888 15.608 719.827 15.5862 719.736 15.533C719.643 15.4788 719.538 15.4028 719.434 15.3038L727.729 6.63215ZM740.581 47H734.581V53H740.581V47ZM740.581 1.24V-4.76H734.581V1.24H740.581ZM789.925 4.824L785.868 9.24391L785.886 9.26034L785.904 9.27661L789.925 4.824ZM782.821 29.848L781.823 23.9316L773.044 25.4124L777.712 32.9936L782.821 29.848ZM793.381 47V53H804.121L798.491 43.8544L793.381 47ZM781.733 47L776.547 50.0171L778.282 53H781.733V47ZM771.941 30.168L777.128 27.1509L775.392 24.168H771.941V30.168ZM750.821 30.168V24.168H744.821V30.168H750.821ZM750.821 47V53H756.821V47H750.821ZM750.821 9.56V3.56H744.821V9.56H750.821ZM750.821 21.784H744.821V27.7697L750.807 27.784L750.821 21.784ZM777.701 21.848L777.687 27.848L777.694 27.848H777.701V21.848ZM781.989 20.44L777.935 16.0171L777.888 16.0601L777.842 16.1041L781.989 20.44ZM781.989 10.968L777.842 15.3038L777.938 15.3958L778.038 15.4835L781.989 10.968ZM746.581 47V1.24H734.581V47H746.581ZM740.581 7.24H778.917V-4.76H740.581V7.24ZM778.917 7.24C782.671 7.24 784.704 8.1753 785.868 9.24391L793.983 0.404082C789.942 -3.30597 784.635 -4.76 778.917 -4.76V7.24ZM785.904 9.27661C786.88 10.1583 787.893 11.893 787.893 15.704H799.893C799.893 9.78704 798.262 4.26841 793.947 0.37138L785.904 9.27661ZM787.893 15.704C787.893 18.9609 787.139 20.6916 786.37 21.6326L795.657 29.2314C798.727 25.479 799.893 20.7245 799.893 15.704H787.893ZM786.37 21.6326C785.533 22.6552 784.211 23.5288 781.823 23.9316L783.819 35.7644C788.514 34.9726 792.654 32.9021 795.657 29.2314L786.37 21.6326ZM777.712 32.9936L788.272 50.1456L798.491 43.8544L787.931 26.7024L777.712 32.9936ZM793.381 41H781.733V53H793.381V41ZM786.92 43.9829L777.128 27.1509L766.755 33.1851L776.547 50.0171L786.92 43.9829ZM771.941 24.168H750.821V36.168H771.941V24.168ZM744.821 30.168V47H756.821V30.168H744.821ZM750.821 41H740.581V53H750.821V41ZM777.701 3.56H750.821V15.56H777.701V3.56ZM744.821 9.56V21.784H756.821V9.56H744.821ZM750.807 27.784L777.687 27.848L777.716 15.848L750.836 15.784L750.807 27.784ZM777.701 27.848C780.525 27.848 783.67 27.1348 786.137 24.7758L777.842 16.1041C777.945 16.0052 778.05 15.9292 778.143 15.875C778.234 15.8218 778.296 15.8 778.309 15.7954C778.322 15.7915 778.284 15.8051 778.182 15.8195C778.08 15.834 777.923 15.848 777.701 15.848V27.848ZM786.044 24.8629C788.881 22.2616 789.525 18.6241 789.525 15.704H777.525C777.525 16.0314 777.506 16.275 777.483 16.4463C777.46 16.6179 777.436 16.6957 777.434 16.701C777.433 16.7043 777.459 16.6229 777.539 16.4908C777.623 16.3545 777.751 16.1854 777.935 16.0171L786.044 24.8629ZM789.525 15.704C789.525 12.8196 788.916 9.05612 785.94 6.45253L778.038 15.4835C777.817 15.2897 777.663 15.0921 777.563 14.9322C777.467 14.7775 777.435 14.6783 777.434 14.675C777.433 14.6736 777.458 14.7503 777.482 14.929C777.506 15.1069 777.525 15.3612 777.525 15.704H789.525ZM786.137 6.63215C783.67 4.27315 780.525 3.56 777.701 3.56V15.56C777.923 15.56 778.08 15.574 778.182 15.5885C778.284 15.6029 778.322 15.6165 778.309 15.6125C778.296 15.608 778.234 15.5862 778.143 15.533C778.05 15.4788 777.945 15.4028 777.842 15.3038L786.137 6.63215ZM800.301 47H794.301V53H800.301V47ZM800.301 1.24V-4.76H794.301V1.24H800.301ZM810.541 1.24H816.541V-4.76H810.541V1.24ZM810.541 47V53H816.541V47H810.541ZM806.301 47V1.24H794.301V47H806.301ZM800.301 7.24H810.541V-4.76H800.301V7.24ZM804.541 1.24V47H816.541V1.24H804.541ZM810.541 41H800.301V53H810.541V41ZM814.369 47L809.57 43.3978L802.362 53H814.369V47ZM831.521 24.152L836.319 27.7541L839.02 24.157L836.324 20.5563L831.521 24.152ZM814.369 1.24V-4.76H802.382L809.566 4.8357L814.369 1.24ZM826.849 1.24L831.686 -2.30962L829.888 -4.76H826.849V1.24ZM840.609 19.992L835.771 23.5416L837.569 25.992H840.609V19.992ZM846.497 19.992V25.992H849.536L851.334 23.5416L846.497 19.992ZM860.257 1.24V-4.76H857.217L855.419 -2.30962L860.257 1.24ZM872.737 1.24L877.54 4.8357L884.723 -4.76H872.737V1.24ZM855.585 24.152L850.782 20.5563L848.086 24.157L850.786 27.7541L855.585 24.152ZM872.737 47V53H884.743L877.535 43.3978L872.737 47ZM860.193 47L855.353 50.5467L857.151 53H860.193V47ZM846.497 28.312L851.336 24.7653L849.538 22.312H846.497V28.312ZM840.609 28.312V22.312H837.567L835.769 24.7653L840.609 28.312ZM826.913 47V53H829.954L831.752 50.5467L826.913 47ZM819.167 50.6022L836.319 27.7541L826.722 20.5498L809.57 43.3978L819.167 50.6022ZM836.324 20.5563L819.172 -2.35571L809.566 4.8357L826.718 27.7477L836.324 20.5563ZM814.369 7.24H826.849V-4.76H814.369V7.24ZM822.011 4.78961L835.771 23.5416L845.446 16.4424L831.686 -2.30962L822.011 4.78961ZM840.609 25.992H846.497V13.992H840.609V25.992ZM851.334 23.5416L865.094 4.78961L855.419 -2.30962L841.659 16.4424L851.334 23.5416ZM860.257 7.24H872.737V-4.76H860.257V7.24ZM867.934 -2.35571L850.782 20.5563L860.388 27.7477L877.54 4.8357L867.934 -2.35571ZM850.786 27.7541L867.938 50.6022L877.535 43.3978L860.383 20.5498L850.786 27.7541ZM872.737 41H860.193V53H872.737V41ZM865.032 43.4533L851.336 24.7653L841.657 31.8587L855.353 50.5467L865.032 43.4533ZM846.497 22.312H840.609V34.312H846.497V22.312ZM835.769 24.7653L822.073 43.4533L831.752 50.5467L845.448 31.8587L835.769 24.7653ZM826.913 41H814.369V53H826.913V41ZM321.184 124H315.184V130H321.184V124ZM322.208 86.624H316.208V92.624H322.208V86.624ZM322.208 78.304V72.304H316.208V78.304H322.208ZM368.544 81.888L364.339 86.168L364.357 86.1863L364.376 86.2044L368.544 81.888ZM368.544 101.728L364.376 97.4116L364.357 97.4297L364.339 97.448L368.544 101.728ZM332.448 106.72L336.69 110.963L336.69 110.963L332.448 106.72ZM331.104 115.744H325.104V121.744H331.104V115.744ZM371.04 115.744H377.04V109.744H371.04V115.744ZM371.04 124V130H377.04V124H371.04ZM327.184 124V110.432H315.184V124H327.184ZM327.184 110.432C327.184 107.311 328.025 105.723 328.972 104.793L320.563 96.2313C316.732 99.9946 315.184 105.02 315.184 110.432H327.184ZM328.972 104.793C329.882 103.899 331.623 102.992 335.2 102.992V90.992C329.646 90.992 324.432 92.432 320.563 96.2313L328.972 104.793ZM335.2 102.992H356.256V90.992H335.2V102.992ZM356.256 102.992C358.994 102.992 362.167 102.429 364.709 100.262C367.433 97.9387 368.336 94.7332 368.336 91.808H356.336C356.336 92.0989 356.292 92.0854 356.368 91.8913C356.407 91.7908 356.472 91.6585 356.574 91.514C356.676 91.3686 356.796 91.2384 356.923 91.1303C357.183 90.9088 357.359 90.8727 357.275 90.8966C357.175 90.9252 356.862 90.992 356.256 90.992V102.992ZM368.336 91.808C368.336 88.8828 367.433 85.6773 364.709 83.3543C362.167 81.1874 358.994 80.624 356.256 80.624V92.624C356.862 92.624 357.175 92.6908 357.275 92.7194C357.359 92.7433 357.183 92.7072 356.923 92.4857C356.796 92.3776 356.676 92.2474 356.574 92.102C356.472 91.9575 356.407 91.8252 356.368 91.7247C356.292 91.5306 356.336 91.5171 356.336 91.808H368.336ZM356.256 80.624H322.208V92.624H356.256V80.624ZM328.208 86.624V78.304H316.208V86.624H328.208ZM322.208 84.304H358.24V72.304H322.208V84.304ZM358.24 84.304C361.597 84.304 363.337 85.1839 364.339 86.168L372.749 77.608C368.886 73.8134 363.757 72.304 358.24 72.304V84.304ZM364.376 86.2044C365.422 87.2145 366.256 88.8154 366.256 91.808H378.256C378.256 86.3526 376.614 81.3401 372.711 77.5716L364.376 86.2044ZM366.256 91.808C366.256 94.8006 365.422 96.4015 364.376 97.4116L372.711 106.044C376.614 102.276 378.256 97.2634 378.256 91.808H366.256ZM364.339 97.448C363.337 98.4321 361.597 99.312 358.24 99.312V111.312C363.757 111.312 368.886 109.803 372.749 106.008L364.339 97.448ZM358.24 99.312H336.608V111.312H358.24V99.312ZM336.608 99.312C333.802 99.312 330.642 100.04 328.205 102.477L336.69 110.963C336.576 111.077 336.456 111.169 336.343 111.236C336.233 111.303 336.151 111.335 336.115 111.347C336.055 111.368 336.186 111.312 336.608 111.312V99.312ZM328.205 102.477C325.864 104.818 325.104 107.822 325.104 110.56H337.104C337.104 110.255 337.146 110.211 337.103 110.334C337.08 110.399 337.038 110.498 336.965 110.617C336.891 110.737 336.798 110.855 336.69 110.963L328.205 102.477ZM325.104 110.56V115.744H337.104V110.56H325.104ZM331.104 121.744H371.04V109.744H331.104V121.744ZM365.04 115.744V124H377.04V115.744H365.04ZM371.04 118H321.184V130H371.04V118ZM382.329 118.496L378.417 123.046L378.44 123.065L378.463 123.084L382.329 118.496ZM382.329 83.808L386.216 88.3786L386.22 88.3755L382.329 83.808ZM429.177 83.808L425.265 88.3575L425.278 88.3681L425.29 88.3786L429.177 83.808ZM429.177 118.496L433.064 123.067L433.077 123.056L433.089 123.046L429.177 118.496ZM389.305 111.712L384.911 115.798L389.143 120.349L393.542 115.96L389.305 111.712ZM414.393 86.688L418.63 90.9361L426.632 82.9553L415.538 80.7983L414.393 86.688ZM390.073 89.76L386.198 85.1797L390.073 89.76ZM421.433 112.48L425.309 117.06L425.329 117.043L425.349 117.026L421.433 112.48ZM422.137 90.464L426.493 86.3375L422.259 81.8682L417.9 86.216L422.137 90.464ZM396.985 115.552L392.748 111.304L384.698 119.334L395.87 121.447L396.985 115.552ZM401.593 118.32C394.255 118.32 389.382 116.593 386.195 113.908L378.463 123.084C384.492 128.165 392.462 130.32 401.593 130.32V118.32ZM386.241 113.946C383.349 111.46 381.481 107.538 381.481 101.088H369.481C369.481 109.998 372.178 117.681 378.417 123.046L386.241 113.946ZM381.481 101.088C381.481 94.69 383.343 90.8225 386.216 88.3786L378.442 79.2374C372.185 84.5588 369.481 92.2113 369.481 101.088H381.481ZM386.22 88.3755C389.406 85.6614 394.27 83.92 401.593 83.92V71.92C392.448 71.92 384.468 74.1039 378.438 79.2405L386.22 88.3755ZM401.593 83.92H409.913V71.92H401.593V83.92ZM409.913 83.92C417.293 83.92 422.137 85.6674 425.265 88.3575L433.089 79.2585C427.087 74.0979 419.088 71.92 409.913 71.92V83.92ZM425.29 88.3786C428.164 90.8225 430.025 94.69 430.025 101.088H442.025C442.025 92.2113 439.321 84.5588 433.064 79.2374L425.29 88.3786ZM430.025 101.088C430.025 107.538 428.157 111.46 425.265 113.946L433.089 123.046C439.328 117.681 442.025 109.998 442.025 101.088H430.025ZM425.29 113.925C422.161 116.587 417.307 118.32 409.913 118.32V130.32C419.074 130.32 427.063 128.171 433.064 123.067L425.29 113.925ZM409.913 118.32H401.593V130.32H409.913V118.32ZM379.913 101.088C379.913 106.645 381.267 111.878 384.911 115.798L393.699 107.626C392.821 106.682 391.913 104.832 391.913 101.088H379.913ZM393.542 115.96L418.63 90.9361L410.156 82.4399L385.068 107.464L393.542 115.96ZM415.538 80.7983C413.552 80.412 411.431 80.24 409.209 80.24V92.24C410.828 92.24 412.163 92.3667 413.248 92.5777L415.538 80.7983ZM409.209 80.24H402.297V92.24H409.209V80.24ZM402.297 80.24C396.163 80.24 390.47 81.5649 386.198 85.1797L393.949 94.3403C395.224 93.2618 397.68 92.24 402.297 92.24V80.24ZM386.198 85.1797C381.573 89.0932 379.913 94.9073 379.913 101.088H391.913C391.913 96.858 393.027 95.1201 393.949 94.3403L386.198 85.1797ZM402.297 122H409.209V110H402.297V122ZM409.209 122C415.344 122 421.037 120.675 425.309 117.06L417.558 107.9C416.283 108.978 413.827 110 409.209 110V122ZM425.349 117.026C429.93 113.079 431.593 107.278 431.593 101.088H419.593C419.593 105.309 418.483 107.102 417.517 107.934L425.349 117.026ZM431.593 101.088C431.593 95.504 430.205 90.2553 426.493 86.3375L417.782 94.5905C418.678 95.5367 419.593 97.3707 419.593 101.088H431.593ZM417.9 86.216L392.748 111.304L401.222 119.8L426.374 94.712L417.9 86.216ZM395.87 121.447C397.886 121.829 400.039 122 402.297 122V110C400.63 110 399.241 109.872 398.101 109.657L395.87 121.447ZM439.249 124H433.249V130H439.249V124ZM440.273 86.624H434.273V92.624H440.273V86.624ZM440.273 78.304V72.304H434.273V78.304H440.273ZM486.609 81.888L482.404 86.168L482.422 86.1863L482.441 86.2044L486.609 81.888ZM486.609 101.728L482.441 97.4116L482.422 97.4297L482.404 97.448L486.609 101.728ZM450.513 106.72L454.755 110.963L454.755 110.963L450.513 106.72ZM449.169 115.744H443.169V121.744H449.169V115.744ZM489.105 115.744H495.105V109.744H489.105V115.744ZM489.105 124V130H495.105V124H489.105ZM445.249 124V110.432H433.249V124H445.249ZM445.249 110.432C445.249 107.311 446.09 105.723 447.037 104.793L438.628 96.2313C434.797 99.9946 433.249 105.02 433.249 110.432H445.249ZM447.037 104.793C447.947 103.899 449.688 102.992 453.265 102.992V90.992C447.711 90.992 442.497 92.432 438.628 96.2313L447.037 104.793ZM453.265 102.992H474.321V90.992H453.265V102.992ZM474.321 102.992C477.059 102.992 480.232 102.429 482.774 100.262C485.498 97.9387 486.401 94.7332 486.401 91.808H474.401C474.401 92.0989 474.357 92.0854 474.433 91.8913C474.472 91.7908 474.537 91.6585 474.639 91.514C474.741 91.3686 474.861 91.2384 474.988 91.1303C475.248 90.9088 475.424 90.8727 475.34 90.8966C475.24 90.9252 474.927 90.992 474.321 90.992V102.992ZM486.401 91.808C486.401 88.8828 485.498 85.6773 482.774 83.3543C480.232 81.1874 477.059 80.624 474.321 80.624V92.624C474.927 92.624 475.24 92.6908 475.34 92.7194C475.424 92.7433 475.248 92.7072 474.988 92.4857C474.861 92.3776 474.741 92.2474 474.639 92.102C474.537 91.9575 474.472 91.8252 474.433 91.7247C474.357 91.5306 474.401 91.5171 474.401 91.808H486.401ZM474.321 80.624H440.273V92.624H474.321V80.624ZM446.273 86.624V78.304H434.273V86.624H446.273ZM440.273 84.304H476.305V72.304H440.273V84.304ZM476.305 84.304C479.662 84.304 481.402 85.1839 482.404 86.168L490.814 77.608C486.951 73.8134 481.822 72.304 476.305 72.304V84.304ZM482.441 86.2044C483.487 87.2145 484.321 88.8154 484.321 91.808H496.321C496.321 86.3526 494.679 81.3401 490.776 77.5716L482.441 86.2044ZM484.321 91.808C484.321 94.8006 483.487 96.4015 482.441 97.4116L490.776 106.044C494.679 102.276 496.321 97.2634 496.321 91.808H484.321ZM482.404 97.448C481.402 98.4321 479.662 99.312 476.305 99.312V111.312C481.822 111.312 486.951 109.803 490.814 106.008L482.404 97.448ZM476.305 99.312H454.673V111.312H476.305V99.312ZM454.673 99.312C451.867 99.312 448.707 100.04 446.27 102.477L454.755 110.963C454.641 111.077 454.521 111.169 454.408 111.236C454.298 111.303 454.216 111.335 454.18 111.347C454.12 111.368 454.251 111.312 454.673 111.312V99.312ZM446.27 102.477C443.929 104.818 443.169 107.822 443.169 110.56H455.169C455.169 110.255 455.211 110.211 455.168 110.334C455.145 110.399 455.103 110.498 455.03 110.617C454.956 110.737 454.863 110.855 454.755 110.963L446.27 102.477ZM443.169 110.56V115.744H455.169V110.56H443.169ZM449.169 121.744H489.105V109.744H449.169V121.744ZM483.105 115.744V124H495.105V115.744H483.105ZM489.105 118H439.249V130H489.105V118ZM493.546 115.616H487.546V121.616H493.546V115.616ZM493.546 107.232L488.934 103.395L487.546 105.063V107.232H493.546ZM517.61 78.304V72.304H514.797L512.998 74.4669L517.61 78.304ZM530.218 78.304L534.805 82.1719L543.126 72.304H530.218V78.304ZM505.77 107.296L501.183 103.428L492.862 113.296H505.77V107.296ZM530.474 107.296V113.296H536.474V107.296H530.474ZM530.474 96.8V90.8H524.474V96.8H530.474ZM540.394 96.8H546.394V90.8H540.394V96.8ZM540.394 107.296H534.394V113.296H540.394V107.296ZM551.146 107.296H557.146V101.296H551.146V107.296ZM551.146 115.616V121.616H557.146V115.616H551.146ZM540.394 115.616V109.616H534.394V115.616H540.394ZM540.394 124V130H546.394V124H540.394ZM530.474 124H524.474V130H530.474V124ZM530.474 115.616H536.474V109.616H530.474V115.616ZM499.546 115.616V107.232H487.546V115.616H499.546ZM498.159 111.069L522.223 82.1411L512.998 74.4669L488.934 103.395L498.159 111.069ZM517.61 84.304H530.218V72.304H517.61V84.304ZM525.631 74.4361L501.183 103.428L510.357 111.164L534.805 82.1719L525.631 74.4361ZM505.77 113.296H530.474V101.296H505.77V113.296ZM536.474 107.296V96.8H524.474V107.296H536.474ZM530.474 102.8H540.394V90.8H530.474V102.8ZM534.394 96.8V107.296H546.394V96.8H534.394ZM540.394 113.296H551.146V101.296H540.394V113.296ZM545.146 107.296V115.616H557.146V107.296H545.146ZM551.146 109.616H540.394V121.616H551.146V109.616ZM534.394 115.616V124H546.394V115.616H534.394ZM540.394 118H530.474V130H540.394V118ZM536.474 124V115.616H524.474V124H536.474ZM530.474 109.616H493.546V121.616H530.474V109.616Z" fill="#FF1717" mask="url(#path-1-outside-1_169_11)"/>
</svg>
