<svg width="922" height="160" viewBox="0 0 922 160" fill="none" xmlns="http://www.w3.org/2000/svg">
    <rect x="0.5" y="0.5" width="921" height="159" />
    <mask id="path-2-outside-1_176_59" maskUnits="userSpaceOnUse" x="19" y="12" width="891"
        height="137" fill="black">
        <rect fill="white" x="19" y="12" width="891" height="137" />
        <path
            d="M51.6782 65.32C43.2302 65.32 36.7662 63.3787 32.2862 59.496C27.8062 55.5707 25.5662 49.768 25.5662 42.088C25.5662 34.4507 27.8062 28.6693 32.2862 24.744C36.7662 20.8187 43.2302 18.8773 51.6782 18.92L74.7182 19.048V27.24H52.3822C46.8356 27.24 42.7182 28.4133 40.0302 30.76C37.3422 33.1067 35.9982 36.8827 35.9982 42.088C35.9982 47.2933 37.3422 51.0907 40.0302 53.48C42.7182 55.8267 46.8356 57 52.3822 57H75.3582V65.32H51.6782ZM76.6312 65L97.2392 19.24H113.047L133.655 65H122.519L118.167 55.336H92.1192L87.7672 65H76.6312ZM95.8312 47.016H114.455L105.559 27.24H104.727L95.8312 47.016ZM137.504 65V19.24H147.872L180.256 52.136V19.24H190.496V65H180.128L147.744 32.04V65H137.504ZM194.321 65L214.929 19.24H230.737L251.345 65H240.209L235.857 55.336H209.809L205.457 65H194.321ZM213.521 47.016H232.145L223.249 27.24H222.417L213.521 47.016ZM255.194 65V19.24H262.746L283.226 19.176C291.503 19.176 297.924 21.1173 302.49 25C307.055 28.8827 309.338 34.5787 309.338 42.088C309.338 49.5973 307.055 55.2933 302.49 59.176C297.924 63.0587 291.503 65 283.226 65H255.194ZM282.522 27.496H265.434V56.68H282.522C287.898 56.68 291.972 55.5067 294.746 53.16C297.519 50.8133 298.906 47.1227 298.906 42.088C298.906 37.0107 297.519 33.32 294.746 31.016C291.972 28.6693 287.898 27.496 282.522 27.496ZM309.386 65L329.994 19.24H345.802L366.41 65H355.274L350.922 55.336H324.874L320.522 65H309.386ZM328.586 47.016H347.21L338.314 27.24H337.482L328.586 47.016ZM413.626 65.32C405.818 65.32 399.716 63.3787 395.322 59.496C390.97 55.5707 388.794 49.768 388.794 42.088C388.794 34.4507 391.012 28.6907 395.45 24.808C399.93 20.8827 406.415 18.92 414.906 18.92H439.226V27.24H415.61C410.02 27.24 405.882 28.4133 403.194 30.76C400.548 33.1067 399.226 36.8827 399.226 42.088C399.226 47.0373 400.399 50.7067 402.746 53.096C405.092 55.4427 408.527 56.7227 413.05 56.936V39.144H441.722V65.32H413.626ZM422.65 57H431.482V47.464H422.65V57ZM449.386 65V19.24H487.722C492.458 19.24 496.128 20.4347 498.73 22.824C501.376 25.2133 502.698 28.84 502.698 33.704C502.698 37.8427 501.738 41.0853 499.818 43.432C497.898 45.7787 495.168 47.2507 491.626 47.848L502.186 65H490.538L480.746 48.168H459.626V65H449.386ZM486.506 27.56H459.626V39.784L486.506 39.848C488.384 39.848 489.813 39.3787 490.794 38.44C491.818 37.5013 492.33 35.9227 492.33 33.704C492.33 31.4427 491.818 29.864 490.794 28.968C489.813 28.0293 488.384 27.56 486.506 27.56ZM505.266 65L525.874 19.24H541.682L562.29 65H551.154L546.802 55.336H520.754L516.402 65H505.266ZM524.466 47.016H543.09L534.194 27.24H533.362L524.466 47.016ZM566.139 65V19.24H576.507L608.891 52.136V19.24H619.131V65H608.763L576.379 32.04V65H566.139ZM626.796 65V19.24H634.348L654.828 19.176C663.106 19.176 669.527 21.1173 674.092 25C678.658 28.8827 680.94 34.5787 680.94 42.088C680.94 49.5973 678.658 55.2933 674.092 59.176C669.527 63.0587 663.106 65 654.828 65H626.796ZM654.124 27.496H637.036V56.68H654.124C659.5 56.68 663.575 55.5067 666.348 53.16C669.122 50.8133 670.508 47.1227 670.508 42.088C670.508 37.0107 669.122 33.32 666.348 31.016C663.575 28.6693 659.5 27.496 654.124 27.496ZM707.174 65V19.24H745.51C750.246 19.24 753.915 20.4347 756.518 22.824C759.163 25.2133 760.486 28.84 760.486 33.704C760.486 38.568 759.163 42.1947 756.518 44.584C753.915 46.9733 750.246 48.168 745.51 48.168H717.414V65H707.174ZM744.294 27.56H717.414V39.784L744.294 39.848C746.171 39.848 747.6 39.3787 748.582 38.44C749.606 37.5013 750.118 35.9227 750.118 33.704C750.118 31.4427 749.606 29.864 748.582 28.968C747.6 28.0293 746.171 27.56 744.294 27.56ZM765.581 65V19.24H803.917C808.653 19.24 812.323 20.4347 814.925 22.824C817.571 25.2133 818.893 28.84 818.893 33.704C818.893 37.8427 817.933 41.0853 816.013 43.432C814.093 45.7787 811.363 47.2507 807.821 47.848L818.381 65H806.733L796.941 48.168H775.821V65H765.581ZM802.701 27.56H775.821V39.784L802.701 39.848C804.579 39.848 806.008 39.3787 806.989 38.44C808.013 37.5013 808.525 35.9227 808.525 33.704C808.525 31.4427 808.013 29.864 806.989 28.968C806.008 28.0293 804.579 27.56 802.701 27.56ZM825.301 65V19.24H835.541V65H825.301ZM839.369 65L856.521 42.152L839.369 19.24H851.849L865.609 37.992H871.497L885.257 19.24H897.737L880.585 42.152L897.737 65H885.193L871.497 46.312H865.609L851.913 65H839.369ZM346.184 142V128.432C346.184 124.165 347.378 120.859 349.768 118.512C352.157 116.165 355.634 114.992 360.2 114.992H381.256C385.309 114.992 387.336 113.264 387.336 109.808C387.336 106.352 385.309 104.624 381.256 104.624H347.208V96.304H383.24C387.677 96.304 391.112 97.4987 393.544 99.888C396.018 102.277 397.256 105.584 397.256 109.808C397.256 114.032 396.018 117.339 393.544 119.728C391.112 122.117 387.677 123.312 383.24 123.312H361.608C359.773 123.312 358.386 123.781 357.448 124.72C356.552 125.616 356.104 126.896 356.104 128.56V133.744H396.04V142H346.184ZM426.593 142.32C418.359 142.32 411.937 140.379 407.329 136.496C402.764 132.571 400.481 126.768 400.481 119.088C400.481 111.451 402.764 105.691 407.329 101.808C411.937 97.8827 418.359 95.92 426.593 95.92H434.913C443.191 95.92 449.612 97.8827 454.177 101.808C458.743 105.691 461.025 111.451 461.025 119.088C461.025 126.768 458.743 132.571 454.177 136.496C449.612 140.379 443.191 142.32 434.913 142.32H426.593ZM410.913 119.088C410.913 123.739 412.044 127.28 414.305 129.712L439.393 104.688C437.857 104.389 436.129 104.24 434.209 104.24H427.297C421.921 104.24 417.847 105.413 415.073 107.76C412.3 110.107 410.913 113.883 410.913 119.088ZM427.297 134H434.209C439.585 134 443.66 132.827 446.433 130.48C449.207 128.091 450.593 124.293 450.593 119.088C450.593 114.437 449.441 110.896 447.137 108.464L421.985 133.552C423.564 133.851 425.335 134 427.297 134ZM464.249 142V128.432C464.249 124.165 465.443 120.859 467.833 118.512C470.222 116.165 473.699 114.992 478.265 114.992H499.321C503.374 114.992 505.401 113.264 505.401 109.808C505.401 106.352 503.374 104.624 499.321 104.624H465.273V96.304H501.305C505.742 96.304 509.177 97.4987 511.609 99.888C514.083 102.277 515.321 105.584 515.321 109.808C515.321 114.032 514.083 117.339 511.609 119.728C509.177 122.117 505.742 123.312 501.305 123.312H479.673C477.838 123.312 476.451 123.781 475.513 124.72C474.617 125.616 474.169 126.896 474.169 128.56V133.744H514.105V142H464.249ZM518.546 133.616V125.232L542.61 96.304H555.218L530.77 125.296H555.474V114.8H565.394V125.296H576.146V133.616H565.394V142H555.474V133.616H518.546Z" />
    </mask>
    <path
        d="M32.2862 59.496L28.3322 64.0088L28.3444 64.0195L28.3567 64.0301L32.2862 59.496ZM51.6782 18.92L51.7116 12.9201L51.7085 12.9201L51.6782 18.92ZM74.7182 19.048H80.7182V13.0812L74.7516 13.0481L74.7182 19.048ZM74.7182 27.24V33.24H80.7182V27.24H74.7182ZM40.0302 30.76L43.9762 35.2799L40.0302 30.76ZM40.0302 53.48L36.0441 57.9645L36.0641 57.9823L36.0843 57.9999L40.0302 53.48ZM75.3582 57H81.3582V51H75.3582V57ZM75.3582 65.32V71.32H81.3582V65.32H75.3582ZM51.6782 59.32C44.068 59.32 39.2208 57.5662 36.2158 54.9619L28.3567 64.0301C34.3116 69.1911 42.3925 71.32 51.6782 71.32V59.32ZM36.2403 54.9832C33.4147 52.5074 31.5662 48.5735 31.5662 42.088H19.5662C19.5662 50.9625 22.1978 58.6339 28.3322 64.0088L36.2403 54.9832ZM31.5662 42.088C31.5662 35.6574 33.4075 31.7389 36.2403 29.2568L28.3322 20.2312C22.205 25.5998 19.5662 33.2439 19.5662 42.088H31.5662ZM36.2403 29.2568C39.2337 26.634 44.057 24.8816 51.6479 24.9199L51.7085 12.9201C42.4034 12.8731 34.2988 15.0033 28.3322 20.2312L36.2403 29.2568ZM51.6449 24.9199L74.6849 25.0479L74.7516 13.0481L51.7116 12.9201L51.6449 24.9199ZM68.7182 19.048V27.24H80.7182V19.048H68.7182ZM74.7182 21.24H52.3822V33.24H74.7182V21.24ZM52.3822 21.24C46.153 21.24 40.3311 22.5326 36.0843 26.2401L43.9762 35.2799C45.1054 34.2941 47.5181 33.24 52.3822 33.24V21.24ZM36.0843 26.2401C31.5839 30.169 29.9982 35.9618 29.9982 42.088H41.9982C41.9982 37.8036 43.1006 36.0443 43.9762 35.2799L36.0843 26.2401ZM29.9982 42.088C29.9982 48.2242 31.5878 54.0034 36.0441 57.9645L44.0164 48.9955C43.0967 48.178 41.9982 46.3624 41.9982 42.088H29.9982ZM36.0843 57.9999C40.3311 61.7074 46.153 63 52.3822 63V51C47.5181 51 45.1054 49.9459 43.9762 48.9601L36.0843 57.9999ZM52.3822 63H75.3582V51H52.3822V63ZM69.3582 57V65.32H81.3582V57H69.3582ZM75.3582 59.32H51.6782V71.32H75.3582V59.32ZM76.6312 65L71.1604 62.5362L67.3488 71H76.6312V65ZM97.2392 19.24V13.24H93.361L91.7684 16.7762L97.2392 19.24ZM113.047 19.24L118.518 16.7762L116.926 13.24H113.047V19.24ZM133.655 65V71H142.938L139.126 62.5362L133.655 65ZM122.519 65L117.048 67.4637L118.641 71H122.519V65ZM118.167 55.336L123.638 52.8723L122.046 49.336H118.167V55.336ZM92.1192 55.336V49.336H88.2409L86.6484 52.8723L92.1192 55.336ZM87.7672 65V71H91.6456L93.2381 67.4637L87.7672 65ZM95.8312 47.016L90.3594 44.5545L86.5531 53.016H95.8312V47.016ZM114.455 47.016V53.016H123.733L119.927 44.5545L114.455 47.016ZM105.559 27.24L111.031 24.7785L109.439 21.24H105.559V27.24ZM104.727 27.24V21.24H100.847L99.2554 24.7785L104.727 27.24ZM82.1021 67.4638L102.71 21.7038L91.7684 16.7762L71.1604 62.5362L82.1021 67.4638ZM97.2392 25.24H113.047V13.24H97.2392V25.24ZM107.576 21.7038L128.184 67.4638L139.126 62.5362L118.518 16.7762L107.576 21.7038ZM133.655 59H122.519V71H133.655V59ZM127.99 62.5363L123.638 52.8723L112.696 57.7997L117.048 67.4637L127.99 62.5363ZM118.167 49.336H92.1192V61.336H118.167V49.336ZM86.6484 52.8723L82.2964 62.5363L93.2381 67.4637L97.5901 57.7997L86.6484 52.8723ZM87.7672 59H76.6312V71H87.7672V59ZM95.8312 53.016H114.455V41.016H95.8312V53.016ZM119.927 44.5545L111.031 24.7785L100.087 29.7015L108.983 49.4775L119.927 44.5545ZM105.559 21.24H104.727V33.24H105.559V21.24ZM99.2554 24.7785L90.3594 44.5545L101.303 49.4775L110.199 29.7015L99.2554 24.7785ZM137.504 65H131.504V71H137.504V65ZM137.504 19.24V13.24H131.504V19.24H137.504ZM147.872 19.24L152.148 15.0308L150.385 13.24H147.872V19.24ZM180.256 52.136L175.98 56.3452L186.256 66.7835V52.136H180.256ZM180.256 19.24V13.24H174.256V19.24H180.256ZM190.496 19.24H196.496V13.24H190.496V19.24ZM190.496 65V71H196.496V65H190.496ZM180.128 65L175.848 69.2051L177.611 71H180.128V65ZM147.744 32.04L152.024 27.8349L141.744 17.3722V32.04H147.744ZM147.744 65V71H153.744V65H147.744ZM143.504 65V19.24H131.504V65H143.504ZM137.504 25.24H147.872V13.24H137.504V25.24ZM143.596 23.4492L175.98 56.3452L184.532 47.9268L152.148 15.0308L143.596 23.4492ZM186.256 52.136V19.24H174.256V52.136H186.256ZM180.256 25.24H190.496V13.24H180.256V25.24ZM184.496 19.24V65H196.496V19.24H184.496ZM190.496 59H180.128V71H190.496V59ZM184.408 60.7949L152.024 27.8349L143.464 36.2451L175.848 69.2051L184.408 60.7949ZM141.744 32.04V65H153.744V32.04H141.744ZM147.744 59H137.504V71H147.744V59ZM194.321 65L188.85 62.5362L185.039 71H194.321V65ZM214.929 19.24V13.24H211.051L209.458 16.7762L214.929 19.24ZM230.737 19.24L236.208 16.7762L234.616 13.24H230.737V19.24ZM251.345 65V71H260.628L256.816 62.5362L251.345 65ZM240.209 65L234.738 67.4637L236.331 71H240.209V65ZM235.857 55.336L241.328 52.8723L239.736 49.336H235.857V55.336ZM209.809 55.336V49.336H205.931L204.338 52.8723L209.809 55.336ZM205.457 65V71H209.336L210.928 67.4637L205.457 65ZM213.521 47.016L208.049 44.5545L204.243 53.016H213.521V47.016ZM232.145 47.016V53.016H241.423L237.617 44.5545L232.145 47.016ZM223.249 27.24L228.721 24.7785L227.129 21.24H223.249V27.24ZM222.417 27.24V21.24H218.537L216.945 24.7785L222.417 27.24ZM199.792 67.4638L220.4 21.7038L209.458 16.7762L188.85 62.5362L199.792 67.4638ZM214.929 25.24H230.737V13.24H214.929V25.24ZM225.266 21.7038L245.874 67.4638L256.816 62.5362L236.208 16.7762L225.266 21.7038ZM251.345 59H240.209V71H251.345V59ZM245.68 62.5363L241.328 52.8723L230.386 57.7997L234.738 67.4637L245.68 62.5363ZM235.857 49.336H209.809V61.336H235.857V49.336ZM204.338 52.8723L199.986 62.5363L210.928 67.4637L215.28 57.7997L204.338 52.8723ZM205.457 59H194.321V71H205.457V59ZM213.521 53.016H232.145V41.016H213.521V53.016ZM237.617 44.5545L228.721 24.7785L217.777 29.7015L226.673 49.4775L237.617 44.5545ZM223.249 21.24H222.417V33.24H223.249V21.24ZM216.945 24.7785L208.049 44.5545L218.993 49.4775L227.889 29.7015L216.945 24.7785ZM255.194 65H249.194V71H255.194V65ZM255.194 19.24V13.24H249.194V19.24H255.194ZM262.746 19.24V25.24H262.755L262.764 25.24L262.746 19.24ZM283.226 19.176V13.176H283.216L283.207 13.176L283.226 19.176ZM302.49 25L298.603 29.5706L298.603 29.5706L302.49 25ZM302.49 59.176L298.603 54.6054V54.6054L302.49 59.176ZM265.434 27.496V21.496H259.434V27.496H265.434ZM265.434 56.68H259.434V62.68H265.434V56.68ZM294.746 53.16L298.621 57.7403L294.746 53.16ZM294.746 31.016L290.87 35.5963L290.891 35.6138L290.912 35.6311L294.746 31.016ZM261.194 65V19.24H249.194V65H261.194ZM255.194 25.24H262.746V13.24H255.194V25.24ZM262.764 25.24L283.245 25.176L283.207 13.176L262.727 13.24L262.764 25.24ZM283.226 25.176C290.62 25.176 295.473 26.9092 298.603 29.5706L306.377 20.4294C300.376 15.3255 292.386 13.176 283.226 13.176V25.176ZM298.603 29.5706C301.499 32.0339 303.338 35.8558 303.338 42.088H315.338C315.338 33.3015 312.611 25.7315 306.377 20.4294L298.603 29.5706ZM303.338 42.088C303.338 48.3202 301.499 52.1421 298.603 54.6054L306.377 63.7466C312.611 58.4445 315.338 50.8745 315.338 42.088H303.338ZM298.603 54.6054C295.473 57.2668 290.62 59 283.226 59V71C292.386 71 300.376 68.8505 306.377 63.7466L298.603 54.6054ZM283.226 59H255.194V71H283.226V59ZM282.522 21.496H265.434V33.496H282.522V21.496ZM259.434 27.496V56.68H271.434V27.496H259.434ZM265.434 62.68H282.522V50.68H265.434V62.68ZM282.522 62.68C288.656 62.68 294.349 61.3551 298.621 57.7403L290.87 48.5797C289.595 49.6582 287.139 50.68 282.522 50.68V62.68ZM298.621 57.7403C303.205 53.862 304.906 48.1747 304.906 42.088H292.906C292.906 46.0706 291.833 47.7647 290.87 48.5797L298.621 57.7403ZM304.906 42.088C304.906 35.9869 303.219 30.2547 298.58 26.4009L290.912 35.6311C291.819 36.3853 292.906 38.0344 292.906 42.088H304.906ZM298.621 26.4357C294.349 22.8209 288.656 21.496 282.522 21.496V33.496C287.139 33.496 289.595 34.5178 290.87 35.5963L298.621 26.4357ZM309.386 65L303.915 62.5362L300.104 71H309.386V65ZM329.994 19.24V13.24H326.116L324.523 16.7762L329.994 19.24ZM345.802 19.24L351.273 16.7762L349.681 13.24H345.802V19.24ZM366.41 65V71H375.693L371.881 62.5362L366.41 65ZM355.274 65L349.803 67.4637L351.396 71H355.274V65ZM350.922 55.336L356.393 52.8723L354.801 49.336H350.922V55.336ZM324.874 55.336V49.336H320.996L319.403 52.8723L324.874 55.336ZM320.522 65V71H324.401L325.993 67.4637L320.522 65ZM328.586 47.016L323.114 44.5545L319.308 53.016H328.586V47.016ZM347.21 47.016V53.016H356.488L352.682 44.5545L347.21 47.016ZM338.314 27.24L343.786 24.7785L342.194 21.24H338.314V27.24ZM337.482 27.24V21.24H333.602L332.01 24.7785L337.482 27.24ZM314.857 67.4638L335.465 21.7038L324.523 16.7762L303.915 62.5362L314.857 67.4638ZM329.994 25.24H345.802V13.24H329.994V25.24ZM340.331 21.7038L360.939 67.4638L371.881 62.5362L351.273 16.7762L340.331 21.7038ZM366.41 59H355.274V71H366.41V59ZM360.745 62.5363L356.393 52.8723L345.451 57.7997L349.803 67.4637L360.745 62.5363ZM350.922 49.336H324.874V61.336H350.922V49.336ZM319.403 52.8723L315.051 62.5363L325.993 67.4637L330.345 57.7997L319.403 52.8723ZM320.522 59H309.386V71H320.522V59ZM328.586 53.016H347.21V41.016H328.586V53.016ZM352.682 44.5545L343.786 24.7785L332.842 29.7015L341.738 49.4775L352.682 44.5545ZM338.314 21.24H337.482V33.24H338.314V21.24ZM332.01 24.7785L323.114 44.5545L334.058 49.4775L342.954 29.7015L332.01 24.7785ZM395.322 59.496L391.303 63.9514L391.326 63.9721L391.349 63.9925L395.322 59.496ZM395.45 24.808L399.401 29.3235L399.404 29.3208L395.45 24.808ZM439.226 18.92H445.226V12.92H439.226V18.92ZM439.226 27.24V33.24H445.226V27.24H439.226ZM403.194 30.76L399.248 26.2401L399.23 26.2558L399.212 26.2715L403.194 30.76ZM402.746 53.096L398.465 57.3002L398.484 57.3195L398.503 57.3386L402.746 53.096ZM413.05 56.936L412.767 62.9293L419.05 63.2257V56.936H413.05ZM413.05 39.144V33.144H407.05V39.144H413.05ZM441.722 39.144H447.722V33.144H441.722V39.144ZM441.722 65.32V71.32H447.722V65.32H441.722ZM422.65 57H416.65V63H422.65V57ZM431.482 57V63H437.482V57H431.482ZM431.482 47.464H437.482V41.464H431.482V47.464ZM422.65 47.464V41.464H416.65V47.464H422.65ZM413.626 59.32C406.789 59.32 402.272 57.6307 399.294 54.9995L391.349 63.9925C397.16 69.1267 404.847 71.32 413.626 71.32V59.32ZM399.34 55.0406C396.611 52.5792 394.794 48.6266 394.794 42.088H382.794C382.794 50.9094 385.328 58.5621 391.303 63.9514L399.34 55.0406ZM394.794 42.088C394.794 35.6359 396.626 31.7513 399.401 29.3235L391.499 20.2925C385.399 25.63 382.794 33.2654 382.794 42.088H394.794ZM399.404 29.3208C402.404 26.6925 407.258 24.92 414.906 24.92V12.92C405.572 12.92 397.456 15.0728 391.496 20.2952L399.404 29.3208ZM414.906 24.92H439.226V12.92H414.906V24.92ZM433.226 18.92V27.24H445.226V18.92H433.226ZM439.226 21.24H415.61V33.24H439.226V21.24ZM415.61 21.24C409.352 21.24 403.501 22.5266 399.248 26.2401L407.14 35.2799C408.262 34.3 410.689 33.24 415.61 33.24V21.24ZM399.212 26.2715C394.775 30.2074 393.226 35.9886 393.226 42.088H405.226C405.226 37.7767 406.322 36.0059 407.175 35.2484L399.212 26.2715ZM393.226 42.088C393.226 47.865 394.586 53.3508 398.465 57.3002L407.026 48.8918C406.212 48.0625 405.226 46.2097 405.226 42.088H393.226ZM398.503 57.3386C402.239 61.0745 407.302 62.6715 412.767 62.9293L413.332 50.9427C409.753 50.7738 407.946 49.8108 406.988 48.8534L398.503 57.3386ZM419.05 56.936V39.144H407.05V56.936H419.05ZM413.05 45.144H441.722V33.144H413.05V45.144ZM435.722 39.144V65.32H447.722V39.144H435.722ZM441.722 59.32H413.626V71.32H441.722V59.32ZM422.65 63H431.482V51H422.65V63ZM437.482 57V47.464H425.482V57H437.482ZM431.482 41.464H422.65V53.464H431.482V41.464ZM416.65 47.464V57H428.65V47.464H416.65ZM449.386 65H443.386V71H449.386V65ZM449.386 19.24V13.24H443.386V19.24H449.386ZM498.73 22.824L494.673 27.2439L494.691 27.2603L494.709 27.2766L498.73 22.824ZM491.626 47.848L490.628 41.9316L481.849 43.4124L486.517 50.9936L491.626 47.848ZM502.186 65V71H512.926L507.296 61.8544L502.186 65ZM490.538 65L485.352 68.0171L487.087 71H490.538V65ZM480.746 48.168L485.932 45.1509L484.197 42.168H480.746V48.168ZM459.626 48.168V42.168H453.626V48.168H459.626ZM459.626 65V71H465.626V65H459.626ZM459.626 27.56V21.56H453.626V27.56H459.626ZM459.626 39.784H453.626V45.7697L459.612 45.784L459.626 39.784ZM486.506 39.848L486.492 45.848L486.499 45.848H486.506V39.848ZM490.794 38.44L486.74 34.0171L486.693 34.0601L486.647 34.1041L490.794 38.44ZM490.794 28.968L486.647 33.3038L486.743 33.3958L486.843 33.4835L490.794 28.968ZM455.386 65V19.24H443.386V65H455.386ZM449.386 25.24H487.722V13.24H449.386V25.24ZM487.722 25.24C491.476 25.24 493.509 26.1753 494.673 27.2439L502.788 18.4041C498.747 14.694 493.44 13.24 487.722 13.24V25.24ZM494.709 27.2766C495.685 28.1583 496.698 29.893 496.698 33.704H508.698C508.698 27.787 507.067 22.2684 502.752 18.3714L494.709 27.2766ZM496.698 33.704C496.698 36.9609 495.944 38.6916 495.174 39.6326L504.462 47.2314C507.532 43.479 508.698 38.7245 508.698 33.704H496.698ZM495.174 39.6326C494.338 40.6552 493.016 41.5288 490.628 41.9316L492.624 53.7644C497.319 52.9726 501.459 50.9021 504.462 47.2314L495.174 39.6326ZM486.517 50.9936L497.077 68.1456L507.296 61.8544L496.736 44.7024L486.517 50.9936ZM502.186 59H490.538V71H502.186V59ZM495.724 61.9829L485.932 45.1509L475.56 51.1851L485.352 68.0171L495.724 61.9829ZM480.746 42.168H459.626V54.168H480.746V42.168ZM453.626 48.168V65H465.626V48.168H453.626ZM459.626 59H449.386V71H459.626V59ZM486.506 21.56H459.626V33.56H486.506V21.56ZM453.626 27.56V39.784H465.626V27.56H453.626ZM459.612 45.784L486.492 45.848L486.521 33.848L459.641 33.784L459.612 45.784ZM486.506 45.848C489.33 45.848 492.475 45.1348 494.942 42.7758L486.647 34.1041C486.75 34.0052 486.855 33.9292 486.948 33.875C487.039 33.8218 487.101 33.8 487.114 33.7954C487.126 33.7915 487.089 33.8051 486.987 33.8195C486.885 33.834 486.728 33.848 486.506 33.848V45.848ZM494.849 42.8629C497.686 40.2616 498.33 36.6241 498.33 33.704H486.33C486.33 34.0314 486.311 34.275 486.288 34.4463C486.265 34.6179 486.241 34.6957 486.239 34.701C486.238 34.7043 486.264 34.6229 486.344 34.4908C486.428 34.3545 486.556 34.1854 486.74 34.0171L494.849 42.8629ZM498.33 33.704C498.33 30.8196 497.721 27.0561 494.745 24.4525L486.843 33.4835C486.622 33.2897 486.468 33.0921 486.368 32.9322C486.272 32.7775 486.24 32.6783 486.239 32.675C486.238 32.6736 486.263 32.7503 486.287 32.929C486.311 33.1069 486.33 33.3612 486.33 33.704H498.33ZM494.942 24.6321C492.475 22.2731 489.33 21.56 486.506 21.56V33.56C486.728 33.56 486.885 33.574 486.987 33.5885C487.089 33.6029 487.126 33.6165 487.114 33.6125C487.101 33.608 487.039 33.5862 486.948 33.533C486.855 33.4788 486.75 33.4028 486.647 33.3038L494.942 24.6321ZM505.266 65L499.795 62.5362L495.984 71H505.266V65ZM525.874 19.24V13.24H521.996L520.403 16.7762L525.874 19.24ZM541.682 19.24L547.153 16.7762L545.561 13.24H541.682V19.24ZM562.29 65V71H571.573L567.761 62.5362L562.29 65ZM551.154 65L545.683 67.4637L547.276 71H551.154V65ZM546.802 55.336L552.273 52.8723L550.681 49.336H546.802V55.336ZM520.754 55.336V49.336H516.876L515.283 52.8723L520.754 55.336ZM516.402 65V71H520.281L521.873 67.4637L516.402 65ZM524.466 47.016L518.994 44.5545L515.188 53.016H524.466V47.016ZM543.09 47.016V53.016H552.368L548.562 44.5545L543.09 47.016ZM534.194 27.24L539.666 24.7785L538.074 21.24H534.194V27.24ZM533.362 27.24V21.24H529.482L527.89 24.7785L533.362 27.24ZM510.737 67.4638L531.345 21.7038L520.403 16.7762L499.795 62.5362L510.737 67.4638ZM525.874 25.24H541.682V13.24H525.874V25.24ZM536.211 21.7038L556.819 67.4638L567.761 62.5362L547.153 16.7762L536.211 21.7038ZM562.29 59H551.154V71H562.29V59ZM556.625 62.5363L552.273 52.8723L541.331 57.7997L545.683 67.4637L556.625 62.5363ZM546.802 49.336H520.754V61.336H546.802V49.336ZM515.283 52.8723L510.931 62.5363L521.873 67.4637L526.225 57.7997L515.283 52.8723ZM516.402 59H505.266V71H516.402V59ZM524.466 53.016H543.09V41.016H524.466V53.016ZM548.562 44.5545L539.666 24.7785L528.722 29.7015L537.618 49.4775L548.562 44.5545ZM534.194 21.24H533.362V33.24H534.194V21.24ZM527.89 24.7785L518.994 44.5545L529.938 49.4775L538.834 29.7015L527.89 24.7785ZM566.139 65H560.139V71H566.139V65ZM566.139 19.24V13.24H560.139V19.24H566.139ZM576.507 19.24L580.783 15.0308L579.02 13.24H576.507V19.24ZM608.891 52.136L604.615 56.3452L614.891 66.7835V52.136H608.891ZM608.891 19.24V13.24H602.891V19.24H608.891ZM619.131 19.24H625.131V13.24H619.131V19.24ZM619.131 65V71H625.131V65H619.131ZM608.763 65L604.483 69.2051L606.246 71H608.763V65ZM576.379 32.04L580.659 27.8349L570.379 17.3722V32.04H576.379ZM576.379 65V71H582.379V65H576.379ZM572.139 65V19.24H560.139V65H572.139ZM566.139 25.24H576.507V13.24H566.139V25.24ZM572.231 23.4492L604.615 56.3452L613.167 47.9268L580.783 15.0308L572.231 23.4492ZM614.891 52.136V19.24H602.891V52.136H614.891ZM608.891 25.24H619.131V13.24H608.891V25.24ZM613.131 19.24V65H625.131V19.24H613.131ZM619.131 59H608.763V71H619.131V59ZM613.043 60.7949L580.659 27.8349L572.099 36.2451L604.483 69.2051L613.043 60.7949ZM570.379 32.04V65H582.379V32.04H570.379ZM576.379 59H566.139V71H576.379V59ZM626.796 65H620.796V71H626.796V65ZM626.796 19.24V13.24H620.796V19.24H626.796ZM634.348 19.24V25.24H634.358L634.367 25.24L634.348 19.24ZM654.828 19.176V13.176H654.819L654.809 13.176L654.828 19.176ZM674.092 25L670.205 29.5706V29.5706L674.092 25ZM674.092 59.176L670.205 54.6054V54.6054L674.092 59.176ZM637.036 27.496V21.496H631.036V27.496H637.036ZM637.036 56.68H631.036V62.68H637.036V56.68ZM666.348 53.16L670.224 57.7403L666.348 53.16ZM666.348 31.016L662.473 35.5963L662.493 35.6138L662.514 35.6311L666.348 31.016ZM632.796 65V19.24H620.796V65H632.796ZM626.796 25.24H634.348V13.24H626.796V25.24ZM634.367 25.24L654.847 25.176L654.809 13.176L634.329 13.24L634.367 25.24ZM654.828 25.176C662.222 25.176 667.076 26.9092 670.205 29.5706L677.979 20.4294C671.978 15.3255 663.989 13.176 654.828 13.176V25.176ZM670.205 29.5706C673.102 32.0339 674.94 35.8558 674.94 42.088H686.94C686.94 33.3015 684.214 25.7315 677.979 20.4294L670.205 29.5706ZM674.94 42.088C674.94 48.3202 673.102 52.1421 670.205 54.6054L677.979 63.7466C684.214 58.4445 686.94 50.8745 686.94 42.088H674.94ZM670.205 54.6054C667.076 57.2668 662.222 59 654.828 59V71C663.989 71 671.978 68.8505 677.979 63.7466L670.205 54.6054ZM654.828 59H626.796V71H654.828V59ZM654.124 21.496H637.036V33.496H654.124V21.496ZM631.036 27.496V56.68H643.036V27.496H631.036ZM637.036 62.68H654.124V50.68H637.036V62.68ZM654.124 62.68C660.259 62.68 665.952 61.3551 670.224 57.7403L662.473 48.5797C661.198 49.6582 658.742 50.68 654.124 50.68V62.68ZM670.224 57.7403C674.807 53.862 676.508 48.1747 676.508 42.088H664.508C664.508 46.0706 663.436 47.7647 662.473 48.5797L670.224 57.7403ZM676.508 42.088C676.508 35.9869 674.821 30.2547 670.182 26.4009L662.514 35.6311C663.422 36.3853 664.508 38.0344 664.508 42.088H676.508ZM670.224 26.4357C665.952 22.8209 660.259 21.496 654.124 21.496V33.496C658.742 33.496 661.198 34.5178 662.473 35.5963L670.224 26.4357ZM707.174 65H701.174V71H707.174V65ZM707.174 19.24V13.24H701.174V19.24H707.174ZM756.518 22.824L752.46 27.2439L752.478 27.2603L752.496 27.2766L756.518 22.824ZM756.518 44.584L752.496 40.1314L752.478 40.1477L752.46 40.1641L756.518 44.584ZM717.414 48.168V42.168H711.414V48.168H717.414ZM717.414 65V71H723.414V65H717.414ZM717.414 27.56V21.56H711.414V27.56H717.414ZM717.414 39.784H711.414V45.7697L717.399 45.784L717.414 39.784ZM744.294 39.848L744.279 45.848L744.287 45.848H744.294V39.848ZM748.582 38.44L744.527 34.0171L744.48 34.0601L744.434 34.1041L748.582 38.44ZM748.582 28.968L744.434 33.3038L744.531 33.3958L744.631 33.4835L748.582 28.968ZM713.174 65V19.24H701.174V65H713.174ZM707.174 25.24H745.51V13.24H707.174V25.24ZM745.51 25.24C749.264 25.24 751.296 26.1753 752.46 27.2439L760.575 18.4041C756.534 14.694 751.228 13.24 745.51 13.24V25.24ZM752.496 27.2766C753.472 28.1583 754.486 29.893 754.486 33.704H766.486C766.486 27.787 764.854 22.2684 760.539 18.3714L752.496 27.2766ZM754.486 33.704C754.486 37.515 753.472 39.2497 752.496 40.1314L760.539 49.0366C764.854 45.1396 766.486 39.621 766.486 33.704H754.486ZM752.46 40.1641C751.296 41.2327 749.264 42.168 745.51 42.168V54.168C751.228 54.168 756.534 52.714 760.575 49.0039L752.46 40.1641ZM745.51 42.168H717.414V54.168H745.51V42.168ZM711.414 48.168V65H723.414V48.168H711.414ZM717.414 59H707.174V71H717.414V59ZM744.294 21.56H717.414V33.56H744.294V21.56ZM711.414 27.56V39.784H723.414V27.56H711.414ZM717.399 45.784L744.279 45.848L744.308 33.848L717.428 33.784L717.399 45.784ZM744.294 45.848C747.118 45.848 750.263 45.1348 752.729 42.7758L744.434 34.1041C744.538 34.0052 744.643 33.9292 744.736 33.875C744.827 33.8218 744.888 33.8 744.902 33.7954C744.914 33.7915 744.876 33.8051 744.775 33.8195C744.672 33.834 744.515 33.848 744.294 33.848V45.848ZM752.636 42.8629C755.474 40.2616 756.118 36.6241 756.118 33.704H744.118C744.118 34.0314 744.099 34.275 744.076 34.4463C744.052 34.6179 744.028 34.6957 744.026 34.701C744.025 34.7043 744.051 34.6229 744.132 34.4908C744.215 34.3545 744.344 34.1854 744.527 34.0171L752.636 42.8629ZM756.118 33.704C756.118 30.8196 755.508 27.0561 752.533 24.4525L744.631 33.4835C744.409 33.2897 744.255 33.0921 744.156 32.9322C744.06 32.7775 744.027 32.6783 744.026 32.675C744.026 32.6736 744.051 32.7503 744.074 32.929C744.098 33.1069 744.118 33.3612 744.118 33.704H756.118ZM752.729 24.6321C750.263 22.2731 747.118 21.56 744.294 21.56V33.56C744.515 33.56 744.672 33.574 744.775 33.5885C744.876 33.6029 744.914 33.6165 744.902 33.6125C744.888 33.608 744.827 33.5862 744.736 33.533C744.643 33.4788 744.538 33.4028 744.434 33.3038L752.729 24.6321ZM765.581 65H759.581V71H765.581V65ZM765.581 19.24V13.24H759.581V19.24H765.581ZM814.925 22.824L810.868 27.2439L810.885 27.2603L810.904 27.2766L814.925 22.824ZM807.821 47.848L806.823 41.9316L798.044 43.4124L802.712 50.9936L807.821 47.848ZM818.381 65V71H829.121L823.491 61.8544L818.381 65ZM806.733 65L801.547 68.0171L803.282 71H806.733V65ZM796.941 48.168L802.128 45.1509L800.392 42.168H796.941V48.168ZM775.821 48.168V42.168H769.821V48.168H775.821ZM775.821 65V71H781.821V65H775.821ZM775.821 27.56V21.56H769.821V27.56H775.821ZM775.821 39.784H769.821V45.7697L775.807 45.784L775.821 39.784ZM802.701 39.848L802.687 45.848L802.694 45.848H802.701V39.848ZM806.989 38.44L802.935 34.0171L802.888 34.0601L802.842 34.1041L806.989 38.44ZM806.989 28.968L802.842 33.3038L802.938 33.3958L803.038 33.4835L806.989 28.968ZM771.581 65V19.24H759.581V65H771.581ZM765.581 25.24H803.917V13.24H765.581V25.24ZM803.917 25.24C807.671 25.24 809.704 26.1753 810.868 27.2439L818.983 18.4041C814.942 14.694 809.635 13.24 803.917 13.24V25.24ZM810.904 27.2766C811.88 28.1583 812.893 29.893 812.893 33.704H824.893C824.893 27.787 823.262 22.2684 818.947 18.3714L810.904 27.2766ZM812.893 33.704C812.893 36.9609 812.139 38.6916 811.37 39.6326L820.657 47.2314C823.727 43.479 824.893 38.7245 824.893 33.704H812.893ZM811.37 39.6326C810.533 40.6552 809.211 41.5288 806.823 41.9316L808.819 53.7644C813.514 52.9726 817.654 50.9021 820.657 47.2314L811.37 39.6326ZM802.712 50.9936L813.272 68.1456L823.491 61.8544L812.931 44.7024L802.712 50.9936ZM818.381 59H806.733V71H818.381V59ZM811.919 61.9829L802.128 45.1509L791.755 51.1851L801.547 68.0171L811.919 61.9829ZM796.941 42.168H775.821V54.168H796.941V42.168ZM769.821 48.168V65H781.821V48.168H769.821ZM775.821 59H765.581V71H775.821V59ZM802.701 21.56H775.821V33.56H802.701V21.56ZM769.821 27.56V39.784H781.821V27.56H769.821ZM775.807 45.784L802.687 45.848L802.716 33.848L775.836 33.784L775.807 45.784ZM802.701 45.848C805.525 45.848 808.67 45.1348 811.137 42.7758L802.842 34.1041C802.945 34.0052 803.05 33.9292 803.143 33.875C803.234 33.8218 803.296 33.8 803.309 33.7954C803.321 33.7915 803.284 33.8051 803.182 33.8195C803.08 33.834 802.923 33.848 802.701 33.848V45.848ZM811.044 42.8629C813.881 40.2616 814.525 36.6241 814.525 33.704H802.525C802.525 34.0314 802.506 34.275 802.483 34.4463C802.46 34.6179 802.436 34.6957 802.434 34.701C802.433 34.7043 802.459 34.6229 802.539 34.4908C802.623 34.3545 802.751 34.1854 802.935 34.0171L811.044 42.8629ZM814.525 33.704C814.525 30.8196 813.916 27.0561 810.94 24.4525L803.038 33.4835C802.817 33.2897 802.663 33.0921 802.563 32.9322C802.467 32.7775 802.435 32.6783 802.434 32.675C802.433 32.6736 802.458 32.7503 802.482 32.929C802.506 33.1069 802.525 33.3612 802.525 33.704H814.525ZM811.137 24.6321C808.67 22.2731 805.525 21.56 802.701 21.56V33.56C802.923 33.56 803.08 33.574 803.182 33.5885C803.284 33.6029 803.321 33.6165 803.309 33.6125C803.296 33.608 803.234 33.5862 803.143 33.533C803.05 33.4788 802.945 33.4028 802.842 33.3038L811.137 24.6321ZM825.301 65H819.301V71H825.301V65ZM825.301 19.24V13.24H819.301V19.24H825.301ZM835.541 19.24H841.541V13.24H835.541V19.24ZM835.541 65V71H841.541V65H835.541ZM831.301 65V19.24H819.301V65H831.301ZM825.301 25.24H835.541V13.24H825.301V25.24ZM829.541 19.24V65H841.541V19.24H829.541ZM835.541 59H825.301V71H835.541V59ZM839.369 65L834.57 61.3979L827.362 71H839.369V65ZM856.521 42.152L861.319 45.7542L864.02 42.157L861.324 38.5563L856.521 42.152ZM839.369 19.24V13.24H827.382L834.566 22.8357L839.369 19.24ZM851.849 19.24L856.686 15.6904L854.888 13.24H851.849V19.24ZM865.609 37.992L860.771 41.5416L862.569 43.992H865.609V37.992ZM871.497 37.992V43.992H874.536L876.334 41.5416L871.497 37.992ZM885.257 19.24V13.24H882.217L880.419 15.6904L885.257 19.24ZM897.737 19.24L902.54 22.8357L909.723 13.24H897.737V19.24ZM880.585 42.152L875.782 38.5563L873.086 42.157L875.786 45.7542L880.585 42.152ZM897.737 65V71H909.743L902.535 61.3979L897.737 65ZM885.193 65L880.353 68.5467L882.151 71H885.193V65ZM871.497 46.312L876.336 42.7653L874.538 40.312H871.497V46.312ZM865.609 46.312V40.312H862.567L860.769 42.7653L865.609 46.312ZM851.913 65V71H854.954L856.752 68.5467L851.913 65ZM844.167 68.6021L861.319 45.7542L851.722 38.5498L834.57 61.3979L844.167 68.6021ZM861.324 38.5563L844.172 15.6443L834.566 22.8357L851.718 45.7477L861.324 38.5563ZM839.369 25.24H851.849V13.24H839.369V25.24ZM847.011 22.7896L860.771 41.5416L870.446 34.4424L856.686 15.6904L847.011 22.7896ZM865.609 43.992H871.497V31.992H865.609V43.992ZM876.334 41.5416L890.094 22.7896L880.419 15.6904L866.659 34.4424L876.334 41.5416ZM885.257 25.24H897.737V13.24H885.257V25.24ZM892.934 15.6443L875.782 38.5563L885.388 45.7477L902.54 22.8357L892.934 15.6443ZM875.786 45.7542L892.938 68.6021L902.535 61.3979L885.383 38.5498L875.786 45.7542ZM897.737 59H885.193V71H897.737V59ZM890.032 61.4533L876.336 42.7653L866.657 49.8587L880.353 68.5467L890.032 61.4533ZM871.497 40.312H865.609V52.312H871.497V40.312ZM860.769 42.7653L847.073 61.4533L856.752 68.5467L870.448 49.8587L860.769 42.7653ZM851.913 59H839.369V71H851.913V59ZM346.184 142H340.184V148H346.184V142ZM347.208 104.624H341.208V110.624H347.208V104.624ZM347.208 96.304V90.304H341.208V96.304H347.208ZM393.544 99.888L389.339 104.168L389.357 104.186L389.376 104.204L393.544 99.888ZM393.544 119.728L389.376 115.412L389.357 115.43L389.339 115.448L393.544 119.728ZM357.448 124.72L361.69 128.963L357.448 124.72ZM356.104 133.744H350.104V139.744H356.104V133.744ZM396.04 133.744H402.04V127.744H396.04V133.744ZM396.04 142V148H402.04V142H396.04ZM352.184 142V128.432H340.184V142H352.184ZM352.184 128.432C352.184 125.311 353.025 123.723 353.972 122.793L345.563 114.231C341.732 117.995 340.184 123.02 340.184 128.432H352.184ZM353.972 122.793C354.882 121.899 356.623 120.992 360.2 120.992V108.992C354.646 108.992 349.432 110.432 345.563 114.231L353.972 122.793ZM360.2 120.992H381.256V108.992H360.2V120.992ZM381.256 120.992C383.994 120.992 387.167 120.429 389.709 118.262C392.433 115.939 393.336 112.733 393.336 109.808H381.336C381.336 110.099 381.292 110.085 381.368 109.891C381.407 109.791 381.472 109.658 381.574 109.514C381.676 109.369 381.796 109.238 381.923 109.13C382.183 108.909 382.359 108.873 382.275 108.897C382.175 108.925 381.862 108.992 381.256 108.992V120.992ZM393.336 109.808C393.336 106.883 392.433 103.677 389.709 101.354C387.167 99.1874 383.994 98.624 381.256 98.624V110.624C381.862 110.624 382.175 110.691 382.275 110.719C382.359 110.743 382.183 110.707 381.923 110.486C381.796 110.378 381.676 110.247 381.574 110.102C381.472 109.958 381.407 109.825 381.368 109.725C381.292 109.531 381.336 109.517 381.336 109.808H393.336ZM381.256 98.624H347.208V110.624H381.256V98.624ZM353.208 104.624V96.304H341.208V104.624H353.208ZM347.208 102.304H383.24V90.304H347.208V102.304ZM383.24 102.304C386.597 102.304 388.337 103.184 389.339 104.168L397.749 95.608C393.886 91.8134 388.757 90.304 383.24 90.304V102.304ZM389.376 104.204C390.422 105.215 391.256 106.815 391.256 109.808H403.256C403.256 104.353 401.614 99.3401 397.711 95.5716L389.376 104.204ZM391.256 109.808C391.256 112.801 390.422 114.401 389.376 115.412L397.711 124.044C401.614 120.276 403.256 115.263 403.256 109.808H391.256ZM389.339 115.448C388.337 116.432 386.597 117.312 383.24 117.312V129.312C388.757 129.312 393.886 127.803 397.749 124.008L389.339 115.448ZM383.24 117.312H361.608V129.312H383.24V117.312ZM361.608 117.312C358.802 117.312 355.642 118.04 353.205 120.477L361.69 128.963C361.576 129.077 361.456 129.169 361.343 129.236C361.233 129.303 361.151 129.335 361.115 129.347C361.055 129.368 361.186 129.312 361.608 129.312V117.312ZM353.205 120.477C350.864 122.818 350.104 125.822 350.104 128.56H362.104C362.104 128.255 362.146 128.211 362.103 128.334C362.08 128.399 362.038 128.498 361.965 128.617C361.891 128.737 361.798 128.855 361.69 128.963L353.205 120.477ZM350.104 128.56V133.744H362.104V128.56H350.104ZM356.104 139.744H396.04V127.744H356.104V139.744ZM390.04 133.744V142H402.04V133.744H390.04ZM396.04 136H346.184V148H396.04V136ZM407.329 136.496L403.417 141.046L403.44 141.065L403.463 141.084L407.329 136.496ZM407.329 101.808L411.216 106.379L411.22 106.375L407.329 101.808ZM454.177 101.808L450.266 106.358L450.278 106.368L450.29 106.379L454.177 101.808ZM454.177 136.496L458.064 141.067L458.077 141.056L458.089 141.046L454.177 136.496ZM414.305 129.712L409.911 133.798L414.143 138.349L418.542 133.96L414.305 129.712ZM439.393 104.688L443.63 108.936L451.632 100.955L440.538 98.7983L439.393 104.688ZM415.073 107.76L411.198 103.18L415.073 107.76ZM446.433 130.48L450.309 135.06L450.329 135.043L450.349 135.026L446.433 130.48ZM447.137 108.464L451.493 104.338L447.259 99.8682L442.9 104.216L447.137 108.464ZM421.985 133.552L417.748 129.304L409.698 137.334L420.87 139.447L421.985 133.552ZM426.593 136.32C419.255 136.32 414.382 134.593 411.195 131.908L403.463 141.084C409.492 146.165 417.462 148.32 426.593 148.32V136.32ZM411.241 131.946C408.349 129.46 406.481 125.538 406.481 119.088H394.481C394.481 127.998 397.178 135.681 403.417 141.046L411.241 131.946ZM406.481 119.088C406.481 112.69 408.343 108.823 411.216 106.379L403.442 97.2374C397.185 102.559 394.481 110.211 394.481 119.088H406.481ZM411.22 106.375C414.406 103.661 419.27 101.92 426.593 101.92V89.92C417.448 89.92 409.468 92.1039 403.438 97.2405L411.22 106.375ZM426.593 101.92H434.913V89.92H426.593V101.92ZM434.913 101.92C442.293 101.92 447.137 103.667 450.266 106.358L458.089 97.2585C452.087 92.0979 444.088 89.92 434.913 89.92V101.92ZM450.29 106.379C453.164 108.823 455.025 112.69 455.025 119.088H467.025C467.025 110.211 464.321 102.559 458.064 97.2374L450.29 106.379ZM455.025 119.088C455.025 125.538 453.157 129.46 450.266 131.946L458.089 141.046C464.328 135.681 467.025 127.998 467.025 119.088H455.025ZM450.29 131.925C447.161 134.587 442.307 136.32 434.913 136.32V148.32C444.074 148.32 452.063 146.171 458.064 141.067L450.29 131.925ZM434.913 136.32H426.593V148.32H434.913V136.32ZM404.913 119.088C404.913 124.645 406.267 129.878 409.911 133.798L418.699 125.626C417.821 124.682 416.913 122.832 416.913 119.088H404.913ZM418.542 133.96L443.63 108.936L435.156 100.44L410.068 125.464L418.542 133.96ZM440.538 98.7983C438.552 98.412 436.431 98.24 434.209 98.24V110.24C435.828 110.24 437.163 110.367 438.248 110.578L440.538 98.7983ZM434.209 98.24H427.297V110.24H434.209V98.24ZM427.297 98.24C421.163 98.24 415.47 99.5649 411.198 103.18L418.949 112.34C420.224 111.262 422.68 110.24 427.297 110.24V98.24ZM411.198 103.18C406.573 107.093 404.913 112.907 404.913 119.088H416.913C416.913 114.858 418.027 113.12 418.949 112.34L411.198 103.18ZM427.297 140H434.209V128H427.297V140ZM434.209 140C440.344 140 446.037 138.675 450.309 135.06L442.558 125.9C441.283 126.978 438.827 128 434.209 128V140ZM450.349 135.026C454.93 131.079 456.593 125.278 456.593 119.088H444.593C444.593 123.309 443.483 125.102 442.517 125.934L450.349 135.026ZM456.593 119.088C456.593 113.504 455.205 108.255 451.493 104.338L442.782 112.59C443.678 113.537 444.593 115.371 444.593 119.088H456.593ZM442.9 104.216L417.748 129.304L426.222 137.8L451.374 112.712L442.9 104.216ZM420.87 139.447C422.886 139.829 425.039 140 427.297 140V128C425.63 128 424.241 127.872 423.101 127.657L420.87 139.447ZM464.249 142H458.249V148H464.249V142ZM465.273 104.624H459.273V110.624H465.273V104.624ZM465.273 96.304V90.304H459.273V96.304H465.273ZM511.609 99.888L507.404 104.168L507.422 104.186L507.441 104.204L511.609 99.888ZM511.609 119.728L507.441 115.412L507.422 115.43L507.404 115.448L511.609 119.728ZM475.513 124.72L479.755 128.963L475.513 124.72ZM474.169 133.744H468.169V139.744H474.169V133.744ZM514.105 133.744H520.105V127.744H514.105V133.744ZM514.105 142V148H520.105V142H514.105ZM470.249 142V128.432H458.249V142H470.249ZM470.249 128.432C470.249 125.311 471.09 123.723 472.037 122.793L463.628 114.231C459.797 117.995 458.249 123.02 458.249 128.432H470.249ZM472.037 122.793C472.947 121.899 474.688 120.992 478.265 120.992V108.992C472.711 108.992 467.497 110.432 463.628 114.231L472.037 122.793ZM478.265 120.992H499.321V108.992H478.265V120.992ZM499.321 120.992C502.059 120.992 505.232 120.429 507.774 118.262C510.498 115.939 511.401 112.733 511.401 109.808H499.401C499.401 110.099 499.357 110.085 499.433 109.891C499.472 109.791 499.537 109.658 499.639 109.514C499.741 109.369 499.861 109.238 499.988 109.13C500.248 108.909 500.424 108.873 500.34 108.897C500.24 108.925 499.927 108.992 499.321 108.992V120.992ZM511.401 109.808C511.401 106.883 510.498 103.677 507.774 101.354C505.232 99.1874 502.059 98.624 499.321 98.624V110.624C499.927 110.624 500.24 110.691 500.34 110.719C500.424 110.743 500.248 110.707 499.988 110.486C499.861 110.378 499.741 110.247 499.639 110.102C499.537 109.958 499.472 109.825 499.433 109.725C499.357 109.531 499.401 109.517 499.401 109.808H511.401ZM499.321 98.624H465.273V110.624H499.321V98.624ZM471.273 104.624V96.304H459.273V104.624H471.273ZM465.273 102.304H501.305V90.304H465.273V102.304ZM501.305 102.304C504.662 102.304 506.402 103.184 507.404 104.168L515.814 95.608C511.951 91.8134 506.822 90.304 501.305 90.304V102.304ZM507.441 104.204C508.487 105.215 509.321 106.815 509.321 109.808H521.321C521.321 104.353 519.679 99.3401 515.776 95.5716L507.441 104.204ZM509.321 109.808C509.321 112.801 508.487 114.401 507.441 115.412L515.776 124.044C519.679 120.276 521.321 115.263 521.321 109.808H509.321ZM507.404 115.448C506.402 116.432 504.662 117.312 501.305 117.312V129.312C506.822 129.312 511.951 127.803 515.814 124.008L507.404 115.448ZM501.305 117.312H479.673V129.312H501.305V117.312ZM479.673 117.312C476.867 117.312 473.707 118.04 471.27 120.477L479.755 128.963C479.641 129.077 479.521 129.169 479.408 129.236C479.298 129.303 479.216 129.335 479.18 129.347C479.12 129.368 479.251 129.312 479.673 129.312V117.312ZM471.27 120.477C468.929 122.818 468.169 125.822 468.169 128.56H480.169C480.169 128.255 480.211 128.211 480.168 128.334C480.145 128.399 480.103 128.498 480.03 128.617C479.956 128.737 479.863 128.855 479.755 128.963L471.27 120.477ZM468.169 128.56V133.744H480.169V128.56H468.169ZM474.169 139.744H514.105V127.744H474.169V139.744ZM508.105 133.744V142H520.105V133.744H508.105ZM514.105 136H464.249V148H514.105V136ZM518.546 133.616H512.546V139.616H518.546V133.616ZM518.546 125.232L513.934 121.395L512.546 123.063V125.232H518.546ZM542.61 96.304V90.304H539.797L537.998 92.4669L542.61 96.304ZM555.218 96.304L559.805 100.172L568.126 90.304H555.218V96.304ZM530.77 125.296L526.183 121.428L517.862 131.296H530.77V125.296ZM555.474 125.296V131.296H561.474V125.296H555.474ZM555.474 114.8V108.8H549.474V114.8H555.474ZM565.394 114.8H571.394V108.8H565.394V114.8ZM565.394 125.296H559.394V131.296H565.394V125.296ZM576.146 125.296H582.146V119.296H576.146V125.296ZM576.146 133.616V139.616H582.146V133.616H576.146ZM565.394 133.616V127.616H559.394V133.616H565.394ZM565.394 142V148H571.394V142H565.394ZM555.474 142H549.474V148H555.474V142ZM555.474 133.616H561.474V127.616H555.474V133.616ZM524.546 133.616V125.232H512.546V133.616H524.546ZM523.159 129.069L547.223 100.141L537.998 92.4669L513.934 121.395L523.159 129.069ZM542.61 102.304H555.218V90.304H542.61V102.304ZM550.631 92.4361L526.183 121.428L535.357 129.164L559.805 100.172L550.631 92.4361ZM530.77 131.296H555.474V119.296H530.77V131.296ZM561.474 125.296V114.8H549.474V125.296H561.474ZM555.474 120.8H565.394V108.8H555.474V120.8ZM559.394 114.8V125.296H571.394V114.8H559.394ZM565.394 131.296H576.146V119.296H565.394V131.296ZM570.146 125.296V133.616H582.146V125.296H570.146ZM576.146 127.616H565.394V139.616H576.146V127.616ZM559.394 133.616V142H571.394V133.616H559.394ZM565.394 136H555.474V148H565.394V136ZM561.474 142V133.616H549.474V142H561.474ZM555.474 127.616H518.546V139.616H555.474V127.616Z"
        fill="#FF1717" mask="url(#path-2-outside-1_176_59)" />
</svg>
